<svg width="27" height="24" viewBox="0 0 27 24" fill="none" xmlns="http://www.w3.org/2000/svg">
<path fill-rule="evenodd" clip-rule="evenodd" d="M26.2661 10.216H24.7685C23.9718 4.66284 19.2087 0.390259 13.4353 0.390259C8.97355 0.390259 5.11694 2.94496 3.2222 6.66566L6.29685 7.848C7.7003 5.35389 10.3688 3.66552 13.4353 3.66552C17.3967 3.66552 20.7006 6.47897 21.4589 10.216H19.4855C19.2317 10.4625 18.9893 10.614 19.3528 11.0406L22.407 14.1472C22.6609 14.3928 23.0711 14.3928 23.3233 14.1472L26.3988 11.0406C26.6518 10.7941 26.5191 10.4625 26.2661 10.216ZM13.4353 20.0418C9.76862 20.0418 6.66614 17.6321 5.62297 14.3101H7.41453C7.66836 14.0645 7.80019 13.732 7.54799 13.4864L4.47251 10.379C4.2195 10.1333 3.80928 10.1333 3.55627 10.379L0.501277 13.4864C0.138541 13.913 0.3809 14.0645 0.633914 14.3101H2.13481C3.02322 19.1681 7.73714 23.3171 13.4353 23.3171C17.6055 23.3171 21.2443 21.0826 23.2504 17.7533L20.1512 16.5299C18.6724 18.6515 16.2168 20.0418 13.4353 20.0418Z" fill="white"/>
</svg>
