<svg width="176" height="125" viewBox="0 0 176 125" fill="none" xmlns="http://www.w3.org/2000/svg">
<ellipse cx="89.5" cy="53.5" rx="52.5" ry="53.5" fill="#DFDDFA"/>
<mask id="mask0_8_853" style="mask-type:alpha" maskUnits="userSpaceOnUse" x="0" y="71" width="176" height="54">
<rect y="71" width="176" height="54" fill="#D9D9D9"/>
</mask>
<g mask="url(#mask0_8_853)">
<path d="M38 55.5C38 69.1586 43.4259 82.2579 53.084 91.916C62.7421 101.574 75.8413 107 89.5 107C103.159 107 116.258 101.574 125.916 91.916C135.574 82.2579 141 69.1587 141 55.5L89.5 55.5L38 55.5Z" fill="url(#paint0_linear_8_853)"/>
</g>
<path d="M51.5586 63H46.5137V37.793H51.5586V63ZM60.541 63H55.7422V44.1738H56.9023L58.4844 46.002C59.2578 45.2988 60.1309 44.7598 61.1035 44.3848C62.0879 43.998 63.1133 43.8047 64.1797 43.8047C65.3281 43.8047 66.4121 44.0273 67.4316 44.4727C68.4512 44.9062 69.3418 45.5098 70.1035 46.2832C70.8652 47.0449 71.4629 47.9414 71.8965 48.9727C72.3418 49.9922 72.5645 51.082 72.5645 52.2422V63H67.7656V52.2422C67.7656 51.75 67.6719 51.2871 67.4844 50.8535C67.2969 50.4082 67.0391 50.0215 66.7109 49.6934C66.3828 49.3652 66.002 49.1074 65.5684 48.9199C65.1348 48.7324 64.6719 48.6387 64.1797 48.6387C63.6758 48.6387 63.2012 48.7324 62.7559 48.9199C62.3105 49.1074 61.9238 49.3652 61.5957 49.6934C61.2676 50.0215 61.0098 50.4082 60.8223 50.8535C60.6348 51.2871 60.541 51.75 60.541 52.2422V63ZM94.1855 63H93.0254L91.1621 60.416C90.7051 60.8262 90.2188 61.2129 89.7031 61.5762C89.1992 61.9277 88.666 62.2383 88.1035 62.5078C87.541 62.7656 86.9609 62.9707 86.3633 63.123C85.7773 63.2754 85.1797 63.3516 84.5703 63.3516C83.2461 63.3516 81.998 63.1055 80.8262 62.6133C79.666 62.1094 78.6465 61.418 77.7676 60.5391C76.9004 59.6484 76.2148 58.5996 75.7109 57.3926C75.207 56.1738 74.9551 54.8496 74.9551 53.4199C74.9551 52.002 75.207 50.6836 75.7109 49.4648C76.2148 48.2461 76.9004 47.1914 77.7676 46.3008C78.6465 45.4102 79.666 44.7129 80.8262 44.209C81.998 43.7051 83.2461 43.4531 84.5703 43.4531C84.9922 43.4531 85.4258 43.4883 85.8711 43.5586C86.3281 43.6289 86.7676 43.7461 87.1895 43.9102C87.623 44.0625 88.0273 44.2676 88.4023 44.5254C88.7773 44.7832 89.0938 45.0996 89.3516 45.4746V36.6855H94.1855V63ZM89.3516 53.4199C89.3516 52.7637 89.2227 52.1309 88.9648 51.5215C88.7188 50.9004 88.3789 50.3555 87.9453 49.8867C87.5117 49.4062 87.002 49.0254 86.416 48.7441C85.8418 48.4512 85.2266 48.3047 84.5703 48.3047C83.9141 48.3047 83.293 48.4219 82.707 48.6562C82.1328 48.8906 81.6289 49.2305 81.1953 49.6758C80.7734 50.1094 80.4395 50.6426 80.1934 51.2754C79.9473 51.9082 79.8242 52.623 79.8242 53.4199C79.8242 54.1113 79.9473 54.7676 80.1934 55.3887C80.4395 56.0098 80.7734 56.5547 81.1953 57.0234C81.6289 57.4922 82.1328 57.8613 82.707 58.1309C83.293 58.4004 83.9141 58.5352 84.5703 58.5352C85.2266 58.5352 85.8418 58.3945 86.416 58.1133C87.002 57.8203 87.5117 57.4395 87.9453 56.9707C88.3789 56.4902 88.7188 55.9453 88.9648 55.3359C89.2227 54.7148 89.3516 54.0762 89.3516 53.4199ZM105.348 58.3945C105.535 58.4531 105.723 58.4941 105.91 58.5176C106.098 58.5293 106.285 58.5352 106.473 58.5352C106.941 58.5352 107.393 58.4707 107.826 58.3418C108.26 58.2129 108.664 58.0312 109.039 57.7969C109.426 57.5508 109.766 57.2578 110.059 56.918C110.363 56.5664 110.609 56.1797 110.797 55.7578L114.312 59.291C113.867 59.9238 113.352 60.4922 112.766 60.9961C112.191 61.5 111.564 61.9277 110.885 62.2793C110.217 62.6309 109.508 62.8945 108.758 63.0703C108.02 63.2578 107.258 63.3516 106.473 63.3516C105.148 63.3516 103.9 63.1055 102.729 62.6133C101.568 62.1211 100.549 61.4355 99.6699 60.5566C98.8027 59.6777 98.1172 58.6348 97.6133 57.4277C97.1094 56.209 96.8574 54.873 96.8574 53.4199C96.8574 51.9316 97.1094 50.5723 97.6133 49.3418C98.1172 48.1113 98.8027 47.0625 99.6699 46.1953C100.549 45.3281 101.568 44.6543 102.729 44.1738C103.9 43.6934 105.148 43.4531 106.473 43.4531C107.258 43.4531 108.025 43.5469 108.775 43.7344C109.525 43.9219 110.234 44.1914 110.902 44.543C111.582 44.8945 112.215 45.3281 112.801 45.8438C113.387 46.3477 113.902 46.916 114.348 47.5488L105.348 58.3945ZM107.809 48.498C107.586 48.416 107.363 48.3633 107.141 48.3398C106.93 48.3164 106.707 48.3047 106.473 48.3047C105.816 48.3047 105.195 48.4277 104.609 48.6738C104.035 48.9082 103.531 49.248 103.098 49.6934C102.676 50.1387 102.342 50.6777 102.096 51.3105C101.85 51.9316 101.727 52.6348 101.727 53.4199C101.727 53.5957 101.732 53.7949 101.744 54.0176C101.768 54.2402 101.797 54.4688 101.832 54.7031C101.879 54.9258 101.932 55.1426 101.99 55.3535C102.049 55.5645 102.125 55.752 102.219 55.916L107.809 48.498ZM133.93 63H128.059L124.314 57.2344L120.535 63H114.664L121.537 53.3496L114.664 44.0684H120.535L124.314 49.4648L128.059 44.0684H133.93L127.039 53.3496L133.93 63Z" fill="#46436E"/>
<defs>
<linearGradient id="paint0_linear_8_853" x1="118.5" y1="95.5" x2="44" y2="81" gradientUnits="userSpaceOnUse">
<stop offset="0.019257" stop-color="#403D6E"/>
<stop offset="1" stop-color="#726F9B"/>
</linearGradient>
</defs>
</svg>
