<svg width="375" height="314" viewBox="0 0 375 314" fill="none" xmlns="http://www.w3.org/2000/svg">
<path d="M402.849 275.938H-18.5599V276.149H402.849V275.938Z" fill="#EBEBEB"/>
<path d="M360.624 289.499H332.71V289.71H360.624V289.499Z" fill="#EBEBEB"/>
<path d="M260.598 291.792H253.274V292.002H260.598V291.792Z" fill="#EBEBEB"/>
<path d="M331.867 281.678H315.693V281.889H331.867V281.678Z" fill="#EBEBEB"/>
<path d="M62.0556 283.094H25.6543V283.305H62.0556V283.094Z" fill="#EBEBEB"/>
<path d="M74.9001 283.094H69.5651V283.305H74.9001V283.094Z" fill="#EBEBEB"/>
<path d="M171.2 286.651H92.2453V286.861H171.2V286.651Z" fill="#EBEBEB"/>
<path d="M181.188 238.349H18.4482C17.1733 238.346 15.9514 237.838 15.0507 236.936C14.15 236.034 13.6442 234.811 13.6442 233.536V4.77035C13.6553 3.50277 14.166 2.29076 15.0655 1.39758C15.965 0.504391 17.1806 0.00217142 18.4482 0H181.188C182.464 0 183.688 0.507029 184.591 1.40954C185.493 2.31206 186 3.53614 186 4.81249V233.536C186 234.813 185.493 236.037 184.591 236.939C183.688 237.842 182.464 238.349 181.188 238.349ZM18.4482 0.168564C17.2292 0.170797 16.0609 0.65661 15.1997 1.51937C14.3385 2.38213 13.8549 3.55134 13.8549 4.77035V233.536C13.8549 234.755 14.3385 235.924 15.1997 236.787C16.0609 237.65 17.2292 238.136 18.4482 238.138H181.188C182.408 238.136 183.577 237.65 184.439 236.788C185.302 235.925 185.787 234.756 185.79 233.536V4.77035C185.787 3.55056 185.302 2.38137 184.439 1.51885C183.577 0.656336 182.408 0.170792 181.188 0.168564H18.4482Z" fill="#EBEBEB"/>
<path d="M363.498 238.349H200.75C199.474 238.346 198.251 237.839 197.349 236.937C196.447 236.035 195.939 234.812 195.937 233.536V4.77035C195.95 3.502 196.463 2.29 197.364 1.39705C198.265 0.504096 199.481 0.00214774 200.75 0H363.498C364.764 0.00438644 365.977 0.507586 366.875 1.40053C367.773 2.29348 368.282 3.50423 368.293 4.77035V233.536C368.293 234.81 367.789 236.031 366.89 236.933C365.991 237.835 364.771 238.344 363.498 238.349ZM200.75 0.168564C199.53 0.170792 198.361 0.656336 197.498 1.51885C196.636 2.38137 196.15 3.55056 196.148 4.77035V233.536C196.15 234.756 196.636 235.925 197.498 236.788C198.361 237.65 199.53 238.136 200.75 238.138H363.498C364.717 238.136 365.887 237.65 366.749 236.788C367.612 235.925 368.097 234.756 368.099 233.536V4.77035C368.097 3.55056 367.612 2.38137 366.749 1.51885C365.887 0.656336 364.717 0.170792 363.498 0.168564H200.75Z" fill="#EBEBEB"/>
<path d="M208.563 275.938H352.288L362.486 23.7506H218.761L208.563 275.938Z" fill="#E6E6E6"/>
<path d="M205.048 275.938H348.774L358.972 23.7506H215.246L205.048 275.938Z" fill="#F0F0F0"/>
<path d="M341.888 268.766L351.513 30.923H222.132L212.515 268.766H341.888Z" fill="#FAFAFA"/>
<path d="M68.579 72.7014L76.0969 91.2434C75.8778 144.855 78.3051 147.948 78.322 157.169H59.3417C58.659 112.289 65.3089 122.377 68.579 72.7014Z" fill="#EBEBEB"/>
<path d="M79.2069 127.451C63.8929 85.3774 28.7137 98.4073 30.3235 113.78C31.9333 129.153 87.9638 151.648 79.2069 127.451Z" fill="#EBEBEB"/>
<path d="M73.3999 151.707C65.056 124.594 42.89 129.018 42.89 141.475C42.89 153.932 78.1956 167.308 73.3999 151.707Z" fill="#EBEBEB"/>
<path d="M72.8016 102.773C59.7126 66.532 27.1125 71.513 29.742 86.8102C32.3716 102.107 80.3279 123.616 72.8016 102.773Z" fill="#EBEBEB"/>
<path d="M72.8942 86.5152C74.1079 61.8206 49.6493 51.6563 51.3434 66.414C53.0374 81.1717 72.1947 100.717 72.8942 86.5152Z" fill="#EBEBEB"/>
<path d="M71.0653 111.8C76.2318 81.374 107.568 69.7937 104.07 87.0209C100.572 104.248 68.0986 129.297 71.0653 111.8Z" fill="#EBEBEB"/>
<path d="M68.4273 94.5978C62.3421 62.6887 90.4922 48.5126 91.3013 63.894C92.1105 79.2754 71.925 112.938 68.4273 94.5978Z" fill="#EBEBEB"/>
<path d="M65.9831 130.637C78.4231 99.8907 105.056 107.518 102.368 121.509C99.6789 135.5 58.8276 148.336 65.9831 130.637Z" fill="#EBEBEB"/>
<path d="M72.1273 152.112C71.8491 132.272 89.8264 127.147 90.0624 138.627C90.2984 150.106 72.279 163.507 72.1273 152.112Z" fill="#EBEBEB"/>
<path d="M66.6237 176.149C61.8979 176.163 57.3093 174.561 53.6194 171.608C49.9294 168.655 47.3599 164.53 46.3371 159.916C45.8456 157.443 45.1377 155.017 44.2216 152.668L44.0615 152.289H89.169L89.0089 152.668C88.0928 155.017 87.385 157.443 86.8934 159.916C85.8727 164.528 83.306 168.652 79.6192 171.605C75.9324 174.557 71.347 176.16 66.6237 176.149Z" fill="#E0E0E0"/>
<path d="M23.0753 275.93H43.0922L43.0922 176.115H23.0753L23.0753 275.93Z" fill="#E6E6E6"/>
<path d="M29.0846 275.938H23.0837V263.911H35.372L29.0846 275.938Z" fill="#F0F0F0"/>
<path d="M160.286 275.93H180.303V176.115H160.286V275.93Z" fill="#E6E6E6"/>
<path d="M23.0753 271.927H165.511V176.115H23.0753V271.927Z" fill="#F0F0F0"/>
<path d="M159.519 275.938H165.52V263.911H153.223L159.519 275.938Z" fill="#F0F0F0"/>
<path d="M27.7361 221.197L160.859 221.197V182.858H27.7361V221.197Z" fill="#E6E6E6"/>
<path d="M63.6907 194.775H120.867C126.725 194.775 132.321 190.047 136.35 181.695H48.2166C52.2368 190.047 57.8415 194.775 63.6907 194.775Z" fill="#F0F0F0"/>
<path d="M27.7361 265.74H160.859V227.401H27.7361V265.74Z" fill="#E6E6E6"/>
<path d="M63.6907 239.31H120.867C126.725 239.31 132.321 234.581 136.35 226.229H48.2166C52.2368 234.581 57.8415 239.31 63.6907 239.31Z" fill="#F0F0F0"/>
<path d="M192.145 314C282.395 314 355.558 309.728 355.558 304.459C355.558 299.19 282.395 294.919 192.145 294.919C101.894 294.919 28.7307 299.19 28.7307 304.459C28.7307 309.728 101.894 314 192.145 314Z" fill="#F5F5F5"/>
<path d="M322.672 219.638H104.584C103.466 219.655 102.356 219.434 101.329 218.991C100.302 218.548 99.3804 217.893 98.6248 217.068C97.8693 216.243 97.2969 215.268 96.9455 214.206C96.594 213.144 96.4715 212.019 96.5858 210.907L109.683 54.9854C109.92 52.6242 111.014 50.4317 112.758 48.8227C114.502 47.2136 116.776 46.2997 119.148 46.2538H337.235C338.354 46.2387 339.463 46.4601 340.49 46.9035C341.517 47.3469 342.438 48.0022 343.194 48.8266C343.95 49.651 344.523 50.6258 344.876 51.6872C345.229 52.7485 345.354 53.8725 345.242 54.9854L332.145 210.907C331.904 213.268 330.808 215.459 329.063 217.068C327.318 218.676 325.044 219.591 322.672 219.638Z" fill="#46436E" fill-opacity="0.92"/>
<path opacity="0.7" d="M322.672 219.638H104.584C103.466 219.655 102.356 219.434 101.329 218.991C100.302 218.548 99.3804 217.893 98.6248 217.068C97.8693 216.243 97.2969 215.268 96.9455 214.206C96.594 213.144 96.4715 212.019 96.5858 210.907L109.683 54.9854C109.92 52.6242 111.014 50.4317 112.758 48.8227C114.502 47.2136 116.776 46.2997 119.148 46.2538H337.235C338.354 46.2387 339.463 46.4601 340.49 46.9035C341.517 47.3469 342.438 48.0022 343.194 48.8266C343.95 49.651 344.523 50.6258 344.876 51.6872C345.229 52.7485 345.354 53.8725 345.242 54.9854L332.145 210.907C331.904 213.268 330.808 215.459 329.063 217.068C327.318 218.676 325.044 219.591 322.672 219.638Z" fill="white"/>
<path d="M104.871 216.267C104.183 216.279 103.501 216.145 102.87 215.874C102.238 215.602 101.671 215.2 101.207 214.693C100.742 214.187 100.391 213.587 100.175 212.934C99.9597 212.281 99.8854 211.59 99.9571 210.907L113.055 54.9854C113.199 53.5346 113.871 52.1873 114.943 51.1992C116.015 50.2111 117.412 49.6509 118.87 49.6251H336.949C337.637 49.6131 338.319 49.7471 338.951 50.0183C339.583 50.2895 340.15 50.6917 340.615 51.1982C341.081 51.7048 341.433 52.3043 341.65 52.9571C341.866 53.6099 341.941 54.3012 341.871 54.9854L328.774 210.907C328.629 212.357 327.957 213.705 326.885 214.693C325.813 215.681 324.416 216.241 322.958 216.267H104.871Z" fill="white"/>
<path d="M125.233 60.489H129.776L129.675 61.6774H128.158L127.846 65.3099H126.354L126.666 61.6774H125.141L125.233 60.489Z" fill="#46436E" fill-opacity="0.92"/>
<path d="M132.616 64.5177H130.931L130.627 65.3099H129.102L131.327 60.489H132.953L134.361 65.3099H132.793L132.616 64.5177ZM132.389 63.4726L132.001 61.7364L131.335 63.4726H132.389Z" fill="#46436E" fill-opacity="0.92"/>
<path d="M134.698 63.717L136.122 63.6243C136.123 63.8107 136.173 63.9936 136.266 64.1552C136.338 64.253 136.434 64.3312 136.544 64.3827C136.655 64.4342 136.776 64.4574 136.898 64.4502C137.079 64.4619 137.259 64.408 137.403 64.2985C137.46 64.2585 137.507 64.207 137.542 64.1474C137.576 64.0879 137.598 64.0216 137.606 63.953C137.613 63.89 137.605 63.8261 137.581 63.7672C137.558 63.7083 137.52 63.6563 137.471 63.6158C137.249 63.4655 136.995 63.3702 136.729 63.3377C136.238 63.2554 135.775 63.0527 135.381 62.7477C135.254 62.6294 135.157 62.4833 135.097 62.3209C135.037 62.1585 135.016 61.9843 135.035 61.8122C135.063 61.5583 135.16 61.3167 135.313 61.1127C135.493 60.8795 135.731 60.699 136.004 60.5901C136.39 60.4511 136.8 60.3881 137.21 60.4047C137.696 60.3665 138.181 60.4879 138.592 60.7503C138.751 60.8832 138.878 61.0514 138.961 61.2415C139.044 61.4317 139.083 61.6386 139.072 61.8459L137.665 61.9218C137.662 61.7457 137.593 61.5771 137.471 61.4498C137.331 61.3438 137.157 61.2928 136.982 61.3065C136.841 61.2966 136.702 61.3352 136.586 61.4161C136.542 61.4453 136.505 61.4838 136.477 61.529C136.449 61.5741 136.432 61.6248 136.426 61.6774C136.424 61.7172 136.432 61.757 136.448 61.7935C136.464 61.83 136.488 61.8624 136.519 61.8881C136.664 61.9873 136.832 62.0482 137.007 62.0651C137.478 62.1528 137.937 62.2971 138.373 62.4949C138.612 62.6119 138.811 62.7965 138.946 63.0259C139.057 63.2473 139.101 63.4963 139.072 63.7423C139.042 64.0479 138.928 64.3394 138.744 64.5851C138.547 64.8482 138.281 65.0523 137.977 65.1751C137.601 65.3204 137.2 65.3892 136.797 65.3773C136.498 65.4157 136.195 65.3938 135.906 65.3127C135.616 65.2316 135.346 65.0931 135.111 64.9054C134.825 64.5774 134.677 64.1516 134.698 63.717Z" fill="#46436E" fill-opacity="0.92"/>
<path d="M140.109 60.489H141.575L141.424 62.3095L143.109 60.489H145.09L143.261 62.3095L144.846 65.3099H143.017L142.174 63.3293L141.331 64.1721L141.23 65.3436H139.738L140.109 60.489Z" fill="#46436E" fill-opacity="0.92"/>
<path d="M147.956 60.489H150.433C150.646 60.4697 150.859 60.4933 151.062 60.5585C151.265 60.6236 151.452 60.729 151.613 60.8683C151.744 61.0161 151.839 61.1912 151.893 61.3808C151.947 61.5704 151.958 61.7696 151.925 61.9639C151.904 62.4004 151.713 62.8113 151.394 63.1102C151.002 63.4103 150.513 63.5571 150.02 63.5231H149.178L149.026 65.3099H147.526L147.956 60.489ZM149.279 62.5455H149.65C149.866 62.564 150.082 62.5106 150.265 62.3938C150.325 62.3473 150.375 62.2888 150.411 62.2221C150.447 62.1553 150.469 62.0818 150.476 62.0061C150.486 61.8692 150.444 61.7336 150.358 61.6268C150.281 61.5629 150.192 61.5156 150.096 61.488C150.001 61.4605 149.9 61.4532 149.801 61.4667H149.371L149.279 62.5455Z" fill="#46436E" fill-opacity="0.92"/>
<path d="M154.892 64.5177H153.206L152.903 65.3099H151.377L153.602 60.489H155.229L156.637 65.3099H155.061L154.892 64.5177ZM154.664 63.4726L154.277 61.7364L153.611 63.4726H154.664Z" fill="#46436E" fill-opacity="0.92"/>
<path d="M157.513 60.489H158.904L160.497 63.1523L160.724 60.489H162.132L161.727 65.3099H160.32L158.735 62.6635L158.508 65.3099H157.109L157.513 60.489Z" fill="#46436E" fill-opacity="0.92"/>
<path d="M163.118 60.489H167.113L167.028 61.5172H164.5L164.433 62.2842H166.759L166.675 63.2703H164.357L164.272 64.2227H166.86L166.767 65.3099H162.696L163.118 60.489Z" fill="#46436E" fill-opacity="0.92"/>
<path d="M167.989 60.489H169.481L169.178 64.1215H171.504L171.403 65.3099H167.585L167.989 60.489Z" fill="#46436E" fill-opacity="0.92"/>
<path opacity="0.1" d="M194.673 67.4675H182.031C181.697 67.473 181.367 67.4076 181.06 67.2755C180.754 67.1435 180.48 66.9478 180.255 66.7015C180.03 66.4552 179.86 66.1639 179.757 65.847C179.653 65.5301 179.618 65.1947 179.654 64.8632L180.025 60.371C180.098 59.6687 180.426 59.0174 180.946 58.5395C181.466 58.0615 182.142 57.7897 182.848 57.7751H195.49C195.823 57.7711 196.152 57.8372 196.457 57.9693C196.762 58.1013 197.035 58.2962 197.26 58.5412C197.484 58.7863 197.654 59.0759 197.759 59.3912C197.864 59.7066 197.9 60.0404 197.867 60.371L197.454 64.8969C197.379 65.589 197.056 66.2306 196.545 66.7031C196.034 67.1756 195.369 67.4471 194.673 67.4675Z" fill="#46436E" fill-opacity="0.92"/>
<path opacity="0.1" d="M327.306 65.5181C329.057 63.8396 329.225 61.1743 327.681 59.5651C326.138 57.9558 323.468 58.012 321.718 59.6905C319.968 61.369 319.8 64.0343 321.343 65.6436C322.886 67.2528 325.556 67.1966 327.306 65.5181Z" fill="#46436E" fill-opacity="0.92"/>
<path opacity="0.1" d="M310.454 65.5205C312.205 63.842 312.372 61.1767 310.829 59.5674C309.286 57.9582 306.616 58.0143 304.866 59.6929C303.115 61.3714 302.947 64.0367 304.491 65.6459C306.034 67.2552 308.704 67.199 310.454 65.5205Z" fill="#46436E" fill-opacity="0.92"/>
<path opacity="0.1" d="M293.593 65.5229C295.344 63.8444 295.512 61.1791 293.968 59.5699C292.425 57.9606 289.755 58.0168 288.005 59.6953C286.255 61.3738 286.087 64.0391 287.63 65.6484C289.173 67.2576 291.843 67.2015 293.593 65.5229Z" fill="#46436E" fill-opacity="0.92"/>
<path opacity="0.1" d="M182.427 80.2025H129.211C126.025 80.2025 123.219 82.6045 122.974 85.5459L112.018 216.267H176.814L187.77 85.5459C188.006 82.5961 185.604 80.2025 182.427 80.2025Z" fill="#46436E" fill-opacity="0.92"/>
<path d="M180.775 83.4389H130.315C129.171 83.4653 128.075 83.9076 127.233 84.6832C126.39 85.4587 125.859 86.5144 125.739 87.653L123.21 117.91C123.156 118.448 123.215 118.991 123.386 119.504C123.556 120.017 123.833 120.488 124.198 120.886C124.564 121.284 125.01 121.6 125.506 121.814C126.003 122.027 126.539 122.133 127.079 122.124H177.53C178.676 122.103 179.775 121.663 180.618 120.886C181.462 120.11 181.991 119.051 182.107 117.91L184.635 87.653C184.687 87.1166 184.626 86.5753 184.455 86.0641C184.284 85.553 184.008 85.0835 183.644 84.6861C183.28 84.2887 182.836 83.9723 182.342 83.7574C181.848 83.5426 181.314 83.434 180.775 83.4389Z" fill="white"/>
<path d="M177.142 126.701H126.683C125.538 126.725 124.441 127.167 123.598 127.943C122.756 128.719 122.225 129.776 122.106 130.915L119.578 161.172C119.523 161.71 119.583 162.253 119.753 162.766C119.923 163.279 120.2 163.75 120.566 164.148C120.931 164.546 121.377 164.862 121.873 165.076C122.37 165.289 122.906 165.395 123.446 165.386H173.897C175.044 165.365 176.143 164.925 176.986 164.148C177.829 163.371 178.359 162.313 178.474 161.172L181.002 130.915C181.054 130.378 180.993 129.837 180.822 129.326C180.652 128.815 180.375 128.345 180.011 127.948C179.647 127.55 179.204 127.234 178.709 127.019C178.215 126.804 177.681 126.696 177.142 126.701Z" fill="white"/>
<path d="M173.51 169.971H123.033C121.888 169.994 120.79 170.435 119.947 171.211C119.104 171.987 118.574 173.045 118.457 174.185L115.929 204.442C115.874 204.98 115.933 205.523 116.104 206.036C116.274 206.549 116.551 207.02 116.916 207.418C117.282 207.816 117.728 208.132 118.224 208.346C118.721 208.559 119.257 208.665 119.797 208.656H170.231C171.377 208.633 172.475 208.192 173.318 207.416C174.161 206.64 174.691 205.582 174.808 204.442L177.336 174.185C177.391 173.651 177.332 173.111 177.164 172.601C176.996 172.091 176.723 171.623 176.362 171.225C176.001 170.828 175.561 170.511 175.07 170.294C174.578 170.078 174.047 169.968 173.51 169.971Z" fill="white"/>
<path opacity="0.5" d="M139.738 100.43H130.813C130.565 100.434 130.32 100.385 130.093 100.287C129.866 100.189 129.662 100.044 129.495 99.8621C129.328 99.6798 129.201 99.4642 129.123 99.2294C129.045 98.9947 129.018 98.7461 129.043 98.5L129.793 89.5746C129.848 89.0527 130.092 88.5688 130.478 88.2135C130.864 87.8583 131.367 87.656 131.891 87.6446H140.808C141.056 87.6409 141.301 87.6896 141.528 87.7875C141.755 87.8854 141.959 88.0303 142.126 88.2126C142.293 88.3949 142.42 88.6105 142.498 88.8452C142.576 89.08 142.603 89.3285 142.578 89.5746L141.828 98.5C141.775 99.0212 141.533 99.505 141.148 99.8604C140.763 100.216 140.262 100.418 139.738 100.43Z" fill="#46436E" fill-opacity="0.92"/>
<path opacity="0.5" d="M177.859 107.383H129.211C129.095 107.384 128.979 107.36 128.872 107.313C128.766 107.267 128.669 107.199 128.59 107.113C128.511 107.028 128.45 106.927 128.412 106.816C128.374 106.706 128.359 106.589 128.369 106.473C128.393 106.226 128.507 105.997 128.688 105.828C128.87 105.659 129.107 105.561 129.355 105.554H178.002C178.119 105.554 178.236 105.578 178.343 105.625C178.451 105.672 178.547 105.741 178.626 105.827C178.706 105.914 178.766 106.016 178.804 106.127C178.841 106.238 178.855 106.356 178.845 106.473C178.818 106.718 178.704 106.946 178.523 107.113C178.341 107.281 178.105 107.377 177.859 107.383Z" fill="#46436E" fill-opacity="0.92"/>
<path opacity="0.2" d="M171.42 93.0807H149.043C148.856 93.0829 148.672 93.0456 148.501 92.9714C148.33 92.8972 148.176 92.7876 148.05 92.6499C147.925 92.5123 147.829 92.3496 147.771 92.1726C147.713 91.9955 147.692 91.8081 147.711 91.6227C147.752 91.2305 147.935 90.8668 148.225 90.5999C148.515 90.3329 148.893 90.1812 149.287 90.173H171.664C171.85 90.171 172.034 90.208 172.204 90.2818C172.374 90.3555 172.527 90.4643 172.653 90.601C172.779 90.7377 172.874 90.8994 172.933 91.0754C172.992 91.2514 173.013 91.4379 172.996 91.6227C172.957 92.0164 172.775 92.3821 172.484 92.6507C172.194 92.9194 171.815 93.0724 171.42 93.0807Z" fill="#263238"/>
<path opacity="0.2" d="M162.165 97.9016H148.638C148.453 97.9037 148.269 97.8666 148.098 97.7929C147.928 97.7191 147.775 97.6104 147.649 97.4737C147.524 97.3369 147.428 97.1753 147.369 96.9993C147.31 96.8233 147.289 96.6368 147.307 96.452C147.346 96.0597 147.526 95.6951 147.815 95.4267C148.103 95.1582 148.48 95.0043 148.874 94.9939H162.41C162.596 94.9918 162.781 95.029 162.952 95.1033C163.123 95.1775 163.277 95.287 163.402 95.4247C163.528 95.5624 163.623 95.7251 163.682 95.9021C163.74 96.0791 163.761 96.2665 163.742 96.452C163.701 96.8442 163.518 97.2079 163.228 97.4748C162.937 97.7417 162.56 97.8935 162.165 97.9016Z" fill="#263238"/>
<path opacity="0.5" d="M136.106 143.7H127.18C126.933 143.704 126.688 143.655 126.46 143.557C126.233 143.459 126.029 143.315 125.862 143.132C125.695 142.95 125.568 142.734 125.49 142.5C125.413 142.265 125.385 142.016 125.41 141.77L126.16 132.845C126.214 132.322 126.457 131.837 126.843 131.482C127.23 131.126 127.734 130.924 128.259 130.915H137.176C137.423 130.911 137.669 130.96 137.896 131.058C138.123 131.156 138.327 131.301 138.494 131.483C138.661 131.665 138.788 131.881 138.866 132.115C138.944 132.35 138.971 132.599 138.946 132.845L138.204 141.77C138.151 142.293 137.908 142.778 137.521 143.133C137.134 143.489 136.631 143.691 136.106 143.7Z" fill="#46436E" fill-opacity="0.92"/>
<path opacity="0.5" d="M174.226 150.654H125.562C125.445 150.654 125.328 150.63 125.221 150.583C125.113 150.536 125.017 150.467 124.937 150.381C124.858 150.294 124.798 150.192 124.76 150.081C124.722 149.97 124.708 149.852 124.719 149.735C124.745 149.49 124.86 149.262 125.041 149.095C125.223 148.927 125.458 148.831 125.705 148.825H174.353C174.469 148.824 174.585 148.848 174.691 148.895C174.798 148.941 174.894 149.009 174.974 149.095C175.053 149.18 175.114 149.281 175.152 149.392C175.19 149.502 175.205 149.619 175.195 149.735C175.171 149.979 175.06 150.206 174.882 150.375C174.704 150.544 174.471 150.643 174.226 150.654Z" fill="#46436E" fill-opacity="0.92"/>
<path opacity="0.2" d="M167.787 136.351H145.402C145.216 136.352 145.032 136.314 144.862 136.239C144.692 136.164 144.54 136.055 144.415 135.917C144.29 135.779 144.196 135.617 144.138 135.441C144.08 135.264 144.06 135.078 144.079 134.893C144.119 134.502 144.301 134.14 144.589 133.873C144.878 133.606 145.254 133.453 145.646 133.443H168.031C168.217 133.441 168.401 133.478 168.571 133.552C168.742 133.626 168.895 133.735 169.02 133.871C169.146 134.008 169.241 134.17 169.3 134.346C169.36 134.522 169.381 134.708 169.363 134.893C169.324 135.287 169.142 135.652 168.852 135.921C168.561 136.19 168.183 136.343 167.787 136.351Z" fill="#263238"/>
<path opacity="0.2" d="M158.533 141.172H144.997C144.812 141.174 144.628 141.137 144.458 141.063C144.288 140.989 144.136 140.88 144.011 140.744C143.886 140.607 143.791 140.445 143.733 140.269C143.675 140.093 143.655 139.907 143.674 139.722C143.713 139.33 143.894 138.965 144.182 138.697C144.471 138.428 144.848 138.275 145.242 138.264H158.777C158.964 138.262 159.149 138.299 159.32 138.374C159.491 138.448 159.644 138.557 159.77 138.695C159.895 138.833 159.991 138.995 160.049 139.172C160.108 139.349 160.128 139.537 160.109 139.722C160.068 140.114 159.885 140.478 159.595 140.745C159.305 141.012 158.927 141.164 158.533 141.172Z" fill="#263238"/>
<path d="M155.061 154.868H172.659C172.934 154.863 173.208 154.916 173.461 155.025C173.715 155.133 173.942 155.295 174.129 155.498C174.315 155.701 174.456 155.942 174.543 156.203C174.63 156.465 174.659 156.743 174.631 157.017L174.369 160.161C174.312 160.744 174.042 161.285 173.612 161.683C173.182 162.081 172.621 162.307 172.035 162.318H154.403C154.127 162.322 153.853 162.267 153.6 162.158C153.346 162.048 153.119 161.886 152.932 161.682C152.746 161.478 152.605 161.237 152.519 160.975C152.432 160.713 152.402 160.435 152.431 160.161L152.692 157.017C152.752 156.43 153.028 155.885 153.465 155.489C153.902 155.092 154.47 154.871 155.061 154.868Z" fill="#46436E" fill-opacity="0.92"/>
<path d="M156.401 159.571H155.372L155.187 160.051H154.268L155.617 157.126H156.603L157.446 160.051H156.502L156.401 159.571ZM156.266 158.938L156.038 157.885L155.625 158.938H156.266Z" fill="white"/>
<path d="M159.721 158.854L160.497 159.099C160.43 159.301 160.327 159.489 160.193 159.655C160.069 159.8 159.913 159.915 159.738 159.992C159.529 160.072 159.305 160.109 159.081 160.102C158.818 160.114 158.556 160.068 158.314 159.967C158.105 159.86 157.936 159.689 157.833 159.478C157.698 159.201 157.649 158.89 157.69 158.585C157.705 158.164 157.876 157.764 158.171 157.464C158.482 157.192 158.887 157.053 159.3 157.076C159.597 157.059 159.892 157.136 160.143 157.295C160.358 157.469 160.505 157.714 160.556 157.986L159.713 158.163C159.701 158.095 159.678 158.03 159.645 157.969C159.601 157.901 159.54 157.846 159.468 157.809C159.397 157.768 159.315 157.748 159.232 157.75C159.135 157.748 159.039 157.77 158.952 157.814C158.865 157.858 158.791 157.923 158.735 158.003C158.625 158.174 158.566 158.373 158.567 158.576C158.519 158.801 158.549 159.036 158.651 159.242C158.697 159.304 158.759 159.354 158.829 159.386C158.9 159.419 158.978 159.433 159.055 159.427C159.13 159.431 159.204 159.419 159.273 159.393C159.343 159.367 159.406 159.327 159.46 159.276C159.58 159.158 159.67 159.014 159.721 158.854Z" fill="white"/>
<path d="M162.907 158.854L163.683 159.099C163.616 159.301 163.513 159.489 163.379 159.655C163.254 159.8 163.099 159.915 162.924 159.992C162.714 160.072 162.491 160.109 162.267 160.102C162.004 160.114 161.742 160.068 161.5 159.967C161.291 159.86 161.122 159.689 161.019 159.478C160.884 159.201 160.834 158.89 160.876 158.585C160.891 158.164 161.062 157.764 161.356 157.464C161.668 157.192 162.073 157.053 162.486 157.076C162.783 157.06 163.077 157.137 163.329 157.295C163.541 157.471 163.687 157.715 163.742 157.986L162.899 158.163C162.887 158.095 162.864 158.03 162.831 157.969C162.785 157.903 162.725 157.848 162.654 157.809C162.58 157.767 162.495 157.746 162.41 157.75C162.314 157.749 162.219 157.771 162.134 157.815C162.048 157.859 161.975 157.924 161.921 158.003C161.811 158.174 161.75 158.372 161.744 158.576C161.703 158.802 161.735 159.036 161.837 159.242C161.883 159.305 161.944 159.355 162.015 159.387C162.086 159.42 162.164 159.434 162.241 159.427C162.314 159.433 162.388 159.424 162.457 159.401C162.527 159.378 162.591 159.341 162.646 159.292C162.768 159.17 162.858 159.02 162.907 158.854Z" fill="white"/>
<path d="M164.331 157.126H166.759L166.7 157.75H165.174L165.132 158.214H166.54L166.489 158.812H165.082L165.031 159.394H166.599L166.54 160.051H164.07L164.331 157.126Z" fill="white"/>
<path d="M167.239 157.126H168.748C168.877 157.114 169.007 157.129 169.131 157.17C169.254 157.21 169.367 157.276 169.464 157.362C169.54 157.454 169.596 157.561 169.628 157.675C169.66 157.79 169.668 157.91 169.65 158.028C169.644 158.16 169.612 158.288 169.555 158.407C169.499 158.526 169.419 158.632 169.321 158.719C169.08 158.902 168.78 158.989 168.478 158.964H167.981L167.888 160.051H166.978L167.239 157.126ZM168.082 158.374H168.31C168.44 158.383 168.57 158.351 168.68 158.281C168.715 158.255 168.744 158.222 168.766 158.184C168.787 158.146 168.801 158.105 168.807 158.062C168.812 158.019 168.809 157.975 168.797 157.933C168.786 157.891 168.766 157.852 168.739 157.818C168.693 157.778 168.639 157.749 168.581 157.732C168.523 157.714 168.462 157.709 168.402 157.716H168.141L168.082 158.374Z" fill="white"/>
<path d="M169.995 157.126H172.76L172.701 157.851H171.782L171.588 160.051H170.678L170.872 157.851H169.953L169.995 157.126Z" fill="white"/>
<path opacity="0.5" d="M132.465 186.971H123.548C123.3 186.973 123.054 186.923 122.827 186.824C122.6 186.725 122.396 186.58 122.229 186.397C122.062 186.214 121.936 185.998 121.858 185.763C121.78 185.528 121.753 185.279 121.778 185.032L122.528 176.149C122.581 175.628 122.823 175.144 123.208 174.788C123.593 174.433 124.094 174.23 124.618 174.219H133.543C133.791 174.215 134.036 174.264 134.263 174.362C134.49 174.46 134.694 174.605 134.861 174.787C135.028 174.969 135.155 175.185 135.233 175.419C135.311 175.654 135.338 175.903 135.313 176.149L134.563 185.066C134.501 185.582 134.254 186.059 133.869 186.409C133.483 186.759 132.985 186.958 132.465 186.971Z" fill="#46436E" fill-opacity="0.92"/>
<path opacity="0.25" d="M170.585 193.924H121.946C121.829 193.924 121.713 193.9 121.605 193.853C121.498 193.806 121.401 193.737 121.322 193.651C121.242 193.564 121.182 193.462 121.144 193.351C121.107 193.24 121.093 193.122 121.103 193.005C121.13 192.76 121.244 192.532 121.426 192.365C121.607 192.198 121.843 192.102 122.09 192.095H170.737C170.854 192.095 170.969 192.118 171.076 192.165C171.183 192.211 171.279 192.28 171.358 192.365C171.437 192.451 171.498 192.552 171.536 192.662C171.574 192.772 171.589 192.889 171.58 193.005C171.555 193.253 171.44 193.484 171.257 193.653C171.074 193.823 170.835 193.919 170.585 193.924Z" fill="#46436E" fill-opacity="0.92"/>
<path opacity="0.25" d="M161.171 193.924H121.946C121.829 193.924 121.713 193.9 121.605 193.853C121.498 193.806 121.401 193.737 121.322 193.651C121.242 193.564 121.182 193.462 121.144 193.351C121.107 193.24 121.093 193.122 121.103 193.005C121.13 192.76 121.244 192.532 121.426 192.365C121.607 192.198 121.843 192.102 122.09 192.095H161.314C161.431 192.095 161.546 192.118 161.653 192.165C161.76 192.211 161.856 192.28 161.935 192.365C162.015 192.451 162.075 192.552 162.113 192.662C162.151 192.772 162.166 192.889 162.157 193.005C162.133 193.252 162.019 193.481 161.837 193.651C161.656 193.82 161.419 193.917 161.171 193.924Z" fill="#46436E" fill-opacity="0.92"/>
<path opacity="0.2" d="M164.154 179.613H141.769C141.584 179.615 141.4 179.578 141.23 179.504C141.06 179.43 140.908 179.321 140.783 179.184C140.658 179.048 140.563 178.886 140.505 178.71C140.447 178.534 140.427 178.348 140.446 178.163C140.485 177.772 140.666 177.408 140.955 177.141C141.244 176.874 141.62 176.722 142.014 176.714H164.399C164.585 176.71 164.77 176.746 164.941 176.82C165.112 176.893 165.265 177.002 165.391 177.139C165.517 177.276 165.612 177.438 165.671 177.614C165.729 177.791 165.75 177.978 165.731 178.163C165.691 178.556 165.509 178.921 165.219 179.188C164.928 179.455 164.549 179.606 164.154 179.613Z" fill="#263238"/>
<path opacity="0.2" d="M154.9 184.442H141.365C141.179 184.443 140.995 184.405 140.825 184.33C140.655 184.255 140.503 184.146 140.378 184.008C140.253 183.871 140.159 183.708 140.101 183.532C140.043 183.355 140.023 183.169 140.041 182.984C140.079 182.592 140.259 182.227 140.548 181.96C140.838 181.692 141.215 181.541 141.609 181.534H155.145C155.33 181.534 155.513 181.572 155.683 181.646C155.853 181.72 156.005 181.829 156.131 181.965C156.256 182.102 156.352 182.263 156.411 182.438C156.471 182.614 156.493 182.8 156.476 182.984C156.437 183.378 156.255 183.743 155.965 184.012C155.675 184.281 155.296 184.434 154.9 184.442Z" fill="#263238"/>
<path opacity="0.1" d="M251.985 80.2025H198.727C195.549 80.2025 192.743 82.6045 192.498 85.5459L181.542 216.267H246.329L257.286 85.5459C257.53 82.5961 255.128 80.2025 251.985 80.2025Z" fill="#46436E" fill-opacity="0.92"/>
<path d="M250.299 83.4389H199.839C198.694 83.4635 197.597 83.9052 196.755 84.6811C195.912 85.457 195.382 86.5137 195.263 87.653L192.734 117.91C192.68 118.447 192.739 118.99 192.909 119.502C193.079 120.014 193.355 120.485 193.72 120.883C194.084 121.281 194.529 121.597 195.024 121.811C195.52 122.025 196.055 122.132 196.595 122.124H247.054C248.2 122.101 249.298 121.66 250.141 120.884C250.983 120.108 251.513 119.05 251.63 117.91L254.159 87.653C254.212 87.1163 254.152 86.5744 253.982 86.0627C253.811 85.551 253.535 85.0809 253.171 84.6832C252.806 84.2855 252.362 83.9691 251.868 83.7547C251.373 83.5403 250.838 83.4327 250.299 83.4389Z" fill="white"/>
<path d="M246.658 126.701H196.207C195.061 126.724 193.963 127.165 193.12 127.941C192.277 128.717 191.747 129.775 191.63 130.915L189.102 161.172C189.048 161.709 189.109 162.252 189.28 162.764C189.451 163.277 189.728 163.747 190.093 164.145C190.458 164.543 190.903 164.859 191.399 165.073C191.895 165.287 192.43 165.393 192.97 165.386H243.43C244.575 165.361 245.672 164.92 246.514 164.144C247.357 163.368 247.888 162.311 248.006 161.172L250.535 130.915C250.588 130.377 250.528 129.833 250.356 129.32C250.185 128.808 249.907 128.337 249.541 127.939C249.175 127.541 248.729 127.225 248.232 127.011C247.735 126.798 247.199 126.692 246.658 126.701Z" fill="white"/>
<path d="M243.025 169.971H192.574C191.428 169.992 190.329 170.432 189.486 171.209C188.642 171.986 188.113 173.044 187.998 174.185L185.469 204.442C185.416 204.98 185.477 205.522 185.647 206.035C185.818 206.547 186.095 207.017 186.46 207.415C186.826 207.813 187.271 208.129 187.767 208.343C188.262 208.557 188.798 208.664 189.338 208.656H239.797C240.943 208.632 242.039 208.19 242.882 207.414C243.725 206.638 244.255 205.581 244.374 204.442L246.902 174.185C246.957 173.647 246.897 173.103 246.727 172.589C246.556 172.076 246.278 171.604 245.912 171.206C245.545 170.808 245.099 170.492 244.601 170.279C244.103 170.066 243.566 169.961 243.025 169.971Z" fill="white"/>
<path opacity="0.5" d="M209.254 100.43H200.337C200.089 100.434 199.844 100.385 199.617 100.287C199.39 100.189 199.186 100.044 199.019 99.8621C198.852 99.6798 198.725 99.4642 198.647 99.2294C198.569 98.9947 198.542 98.7461 198.567 98.5L199.317 89.5746C199.371 89.0528 199.614 88.5689 200.001 88.2147C200.388 87.8604 200.891 87.6606 201.415 87.653H210.341C210.588 87.6493 210.833 87.6981 211.061 87.796C211.288 87.8939 211.492 88.0387 211.659 88.221C211.826 88.4033 211.953 88.6189 212.031 88.8537C212.108 89.0884 212.136 89.337 212.111 89.583L211.361 98.5085C211.303 99.0303 211.058 99.5133 210.67 99.867C210.282 100.221 209.779 100.421 209.254 100.43Z" fill="#46436E" fill-opacity="0.92"/>
<path opacity="0.25" d="M247.374 107.383H198.735C198.619 107.384 198.503 107.36 198.396 107.313C198.289 107.267 198.193 107.199 198.114 107.113C198.035 107.028 197.974 106.927 197.936 106.816C197.898 106.706 197.883 106.589 197.892 106.473C197.915 106.226 198.028 105.995 198.21 105.826C198.392 105.656 198.63 105.56 198.879 105.554H247.526C247.643 105.554 247.76 105.578 247.867 105.625C247.975 105.672 248.071 105.741 248.15 105.827C248.23 105.914 248.29 106.016 248.328 106.127C248.365 106.238 248.379 106.356 248.369 106.473C248.342 106.72 248.226 106.948 248.043 107.116C247.86 107.284 247.622 107.379 247.374 107.383Z" fill="#46436E" fill-opacity="0.92"/>
<path opacity="0.25" d="M219.603 107.383H198.735C198.619 107.384 198.503 107.36 198.396 107.313C198.289 107.267 198.193 107.199 198.114 107.113C198.035 107.028 197.974 106.927 197.936 106.816C197.898 106.706 197.883 106.589 197.892 106.473C197.915 106.226 198.028 105.995 198.21 105.826C198.392 105.656 198.63 105.56 198.879 105.554H219.755C219.873 105.554 219.989 105.578 220.096 105.625C220.204 105.672 220.3 105.741 220.38 105.827C220.459 105.914 220.519 106.016 220.557 106.127C220.595 106.238 220.609 106.356 220.598 106.473C220.571 106.72 220.456 106.948 220.273 107.116C220.089 107.284 219.852 107.379 219.603 107.383Z" fill="#46436E" fill-opacity="0.92"/>
<path opacity="0.2" d="M240.944 93.0807H218.558C218.372 93.0829 218.187 93.0456 218.016 92.9714C217.845 92.8972 217.692 92.7876 217.566 92.6499C217.44 92.5123 217.345 92.3496 217.287 92.1726C217.228 91.9955 217.208 91.8081 217.227 91.6227C217.268 91.2305 217.45 90.8668 217.741 90.5999C218.031 90.3329 218.409 90.1811 218.803 90.173H241.188C241.373 90.1709 241.557 90.2079 241.727 90.2817C241.897 90.3555 242.05 90.4644 242.174 90.6013C242.299 90.7382 242.394 90.9 242.452 91.076C242.51 91.252 242.53 91.4383 242.511 91.6227C242.472 92.0149 242.292 92.3795 242.003 92.648C241.714 92.9165 241.338 93.0703 240.944 93.0807Z" fill="#263238"/>
<path opacity="0.2" d="M231.689 97.9016H218.154C217.968 97.9037 217.784 97.8666 217.614 97.7929C217.443 97.7192 217.29 97.6104 217.165 97.4737C217.039 97.3369 216.944 97.1753 216.885 96.9993C216.826 96.8233 216.804 96.6368 216.822 96.452C216.861 96.0583 217.043 95.6926 217.334 95.4239C217.624 95.1553 218.003 95.0023 218.398 94.9939H231.934C232.12 94.993 232.303 95.0311 232.473 95.1059C232.643 95.1806 232.796 95.2903 232.921 95.4279C233.045 95.5654 233.14 95.7277 233.198 95.9041C233.256 96.0806 233.276 96.2672 233.257 96.452C233.216 96.8428 233.035 97.2053 232.746 97.4721C232.458 97.7388 232.082 97.8915 231.689 97.9016Z" fill="#263238"/>
<path opacity="0.5" d="M205.63 143.7H196.704C196.457 143.704 196.212 143.655 195.984 143.557C195.757 143.459 195.553 143.315 195.386 143.132C195.219 142.95 195.092 142.734 195.014 142.5C194.937 142.265 194.909 142.016 194.934 141.77L195.684 132.845C195.736 132.323 195.977 131.838 196.362 131.482C196.748 131.127 197.25 130.925 197.774 130.915H206.692C206.939 130.91 207.185 130.958 207.413 131.055C207.641 131.152 207.845 131.297 208.013 131.48C208.18 131.663 208.307 131.879 208.384 132.114C208.461 132.349 208.488 132.599 208.461 132.845L207.72 141.77C207.665 142.291 207.422 142.774 207.038 143.129C206.653 143.484 206.153 143.687 205.63 143.7Z" fill="#46436E" fill-opacity="0.92"/>
<path opacity="0.25" d="M243.742 150.654H195.103C194.985 150.654 194.869 150.63 194.762 150.583C194.654 150.536 194.558 150.467 194.478 150.381C194.399 150.294 194.339 150.192 194.301 150.081C194.263 149.97 194.249 149.852 194.26 149.735C194.287 149.488 194.402 149.26 194.585 149.092C194.768 148.924 195.006 148.829 195.254 148.825H243.893C244.01 148.824 244.125 148.848 244.232 148.895C244.339 148.941 244.435 149.009 244.515 149.095C244.594 149.18 244.654 149.281 244.693 149.392C244.731 149.502 244.746 149.619 244.736 149.735C244.712 149.983 244.597 150.214 244.413 150.383C244.23 150.552 243.991 150.649 243.742 150.654Z" fill="#46436E" fill-opacity="0.92"/>
<path opacity="0.25" d="M197.699 150.654H195.103C194.985 150.654 194.869 150.63 194.762 150.583C194.654 150.536 194.558 150.467 194.478 150.381C194.399 150.294 194.339 150.192 194.301 150.081C194.263 149.97 194.249 149.852 194.26 149.735C194.287 149.488 194.402 149.26 194.585 149.092C194.768 148.924 195.006 148.829 195.254 148.825H197.85C197.967 148.824 198.082 148.848 198.189 148.895C198.296 148.941 198.392 149.009 198.471 149.095C198.551 149.18 198.611 149.281 198.649 149.392C198.688 149.502 198.702 149.619 198.693 149.735C198.668 149.983 198.554 150.214 198.37 150.383C198.187 150.552 197.948 150.649 197.699 150.654Z" fill="#46436E" fill-opacity="0.92"/>
<path opacity="0.2" d="M237.311 136.351H214.901C214.714 136.353 214.529 136.316 214.358 136.242C214.187 136.167 214.034 136.058 213.908 135.92C213.782 135.783 213.687 135.62 213.629 135.443C213.57 135.266 213.55 135.078 213.569 134.893C213.61 134.501 213.793 134.137 214.083 133.87C214.373 133.603 214.751 133.451 215.145 133.443H237.53C237.716 133.441 237.899 133.478 238.069 133.552C238.239 133.626 238.392 133.735 238.517 133.872C238.642 134.008 238.736 134.17 238.794 134.346C238.852 134.522 238.872 134.709 238.853 134.893C238.815 135.281 238.638 135.642 238.355 135.91C238.071 136.178 237.701 136.335 237.311 136.351Z" fill="#263238"/>
<path opacity="0.2" d="M228.057 141.172H214.521C214.336 141.174 214.152 141.137 213.981 141.063C213.811 140.989 213.658 140.881 213.532 140.744C213.407 140.607 213.311 140.446 213.252 140.27C213.193 140.094 213.172 139.907 213.19 139.722C213.229 139.329 213.411 138.963 213.701 138.694C213.991 138.426 214.37 138.273 214.766 138.264H228.293C228.479 138.262 228.664 138.299 228.835 138.374C229.006 138.448 229.16 138.557 229.285 138.695C229.411 138.833 229.506 138.995 229.565 139.172C229.623 139.349 229.644 139.537 229.625 139.722C229.584 140.113 229.402 140.476 229.114 140.742C228.825 141.009 228.45 141.162 228.057 141.172Z" fill="#263238"/>
<path opacity="0.5" d="M201.989 186.971H193.072C192.824 186.973 192.578 186.923 192.351 186.824C192.124 186.725 191.92 186.58 191.753 186.397C191.586 186.214 191.46 185.998 191.382 185.763C191.304 185.528 191.277 185.279 191.302 185.032L192.052 176.115C192.103 175.593 192.345 175.108 192.73 174.753C193.115 174.397 193.618 174.195 194.142 174.185H203.101C203.348 174.181 203.594 174.23 203.821 174.328C204.048 174.426 204.252 174.571 204.419 174.753C204.586 174.935 204.713 175.151 204.791 175.386C204.869 175.62 204.896 175.869 204.871 176.115L204.121 185.032C204.069 185.562 203.822 186.054 203.428 186.412C203.034 186.77 202.521 186.969 201.989 186.971Z" fill="#46436E" fill-opacity="0.92"/>
<path opacity="0.5" d="M240.109 193.924H191.47C191.353 193.924 191.237 193.9 191.129 193.853C191.022 193.806 190.925 193.737 190.846 193.651C190.766 193.564 190.706 193.462 190.668 193.351C190.631 193.24 190.617 193.122 190.627 193.005C190.654 192.758 190.77 192.53 190.953 192.362C191.136 192.195 191.374 192.1 191.622 192.095H240.261C240.378 192.095 240.493 192.118 240.6 192.165C240.707 192.211 240.803 192.28 240.882 192.365C240.961 192.451 241.022 192.552 241.06 192.662C241.098 192.772 241.113 192.889 241.104 193.005C241.079 193.253 240.964 193.484 240.781 193.653C240.598 193.823 240.359 193.919 240.109 193.924Z" fill="#46436E" fill-opacity="0.92"/>
<path opacity="0.2" d="M233.679 179.613H211.293C211.107 179.616 210.923 179.58 210.752 179.507C210.581 179.433 210.427 179.325 210.301 179.188C210.175 179.051 210.08 178.888 210.021 178.712C209.963 178.535 209.943 178.348 209.962 178.163C210.001 177.77 210.183 177.406 210.474 177.138C210.764 176.871 211.143 176.72 211.538 176.714H233.915C234.101 176.71 234.285 176.746 234.456 176.82C234.627 176.893 234.781 177.002 234.907 177.139C235.032 177.276 235.128 177.438 235.186 177.614C235.245 177.791 235.265 177.978 235.246 178.163C235.207 178.555 235.026 178.918 234.737 179.185C234.448 179.452 234.072 179.604 233.679 179.613Z" fill="#263238"/>
<path opacity="0.2" d="M224.416 184.442H210.889C210.702 184.444 210.518 184.407 210.347 184.333C210.175 184.259 210.022 184.149 209.896 184.011C209.771 183.874 209.675 183.711 209.617 183.534C209.558 183.357 209.538 183.17 209.557 182.984C209.598 182.592 209.781 182.228 210.071 181.961C210.361 181.694 210.739 181.543 211.133 181.534H224.66C224.846 181.532 225.03 181.569 225.2 181.643C225.371 181.717 225.524 181.826 225.649 181.962C225.775 182.099 225.87 182.261 225.929 182.437C225.988 182.613 226.01 182.799 225.992 182.984C225.953 183.378 225.771 183.743 225.481 184.012C225.19 184.281 224.811 184.434 224.416 184.442Z" fill="#263238"/>
<path d="M220.91 198.138H238.499C238.775 198.134 239.048 198.189 239.301 198.298C239.553 198.407 239.78 198.568 239.967 198.771C240.153 198.974 240.294 199.214 240.381 199.475C240.468 199.736 240.499 200.013 240.472 200.287L240.21 203.431C240.149 204.012 239.878 204.55 239.448 204.946C239.019 205.341 238.46 205.567 237.876 205.58H220.286C220.011 205.584 219.738 205.529 219.485 205.42C219.232 205.311 219.005 205.15 218.819 204.947C218.633 204.744 218.492 204.504 218.405 204.243C218.317 203.982 218.287 203.705 218.314 203.431L218.575 200.287C218.637 199.706 218.907 199.168 219.337 198.772C219.767 198.377 220.326 198.151 220.91 198.138Z" fill="#46436E" fill-opacity="0.92"/>
<path d="M222.292 202.841H221.264L221.078 203.321H220.151L221.508 200.397H222.486L223.329 203.321H222.385L222.292 202.841ZM222.157 202.209L221.921 201.155L221.508 202.209H222.157Z" fill="white"/>
<path d="M225.613 202.124L226.38 202.36C226.321 202.567 226.221 202.759 226.085 202.925C225.96 203.07 225.805 203.185 225.63 203.262C225.417 203.343 225.191 203.381 224.964 203.372C224.701 203.383 224.44 203.337 224.197 203.237C223.99 203.128 223.822 202.957 223.716 202.748C223.576 202.414 223.533 202.047 223.595 201.69C223.656 201.333 223.818 201.002 224.062 200.734C224.373 200.462 224.779 200.323 225.191 200.346C225.488 200.332 225.782 200.408 226.034 200.565C226.244 200.742 226.387 200.986 226.439 201.256L225.596 201.433C225.58 201.366 225.554 201.3 225.52 201.239C225.479 201.172 225.421 201.117 225.351 201.079C225.277 201.037 225.192 201.017 225.107 201.02C225.012 201.018 224.917 201.039 224.832 201.082C224.747 201.124 224.673 201.187 224.618 201.265C224.51 201.44 224.449 201.64 224.441 201.846C224.397 202.072 224.429 202.307 224.534 202.512C224.58 202.573 224.64 202.622 224.709 202.654C224.778 202.687 224.854 202.702 224.93 202.698C225.004 202.703 225.079 202.692 225.149 202.665C225.219 202.639 225.282 202.599 225.335 202.546C225.464 202.433 225.56 202.287 225.613 202.124Z" fill="white"/>
<path d="M228.79 202.124L229.566 202.36C229.504 202.567 229.401 202.76 229.262 202.925C229.138 203.07 228.982 203.185 228.807 203.262C228.597 203.342 228.374 203.379 228.15 203.372C227.887 203.384 227.625 203.338 227.383 203.237C227.175 203.128 227.007 202.957 226.902 202.748C226.767 202.471 226.717 202.16 226.759 201.855C226.774 201.434 226.945 201.034 227.239 200.734C227.552 200.464 227.956 200.325 228.369 200.346C228.666 200.329 228.96 200.406 229.212 200.565C229.427 200.739 229.574 200.984 229.625 201.256L228.782 201.433C228.771 201.365 228.748 201.299 228.714 201.239C228.674 201.172 228.615 201.117 228.546 201.079C228.471 201.038 228.387 201.018 228.301 201.02C228.205 201.019 228.11 201.04 228.023 201.082C227.937 201.125 227.862 201.187 227.804 201.265C227.699 201.441 227.641 201.641 227.636 201.846C227.591 202.072 227.624 202.307 227.728 202.512C227.774 202.573 227.834 202.622 227.903 202.654C227.972 202.687 228.048 202.702 228.124 202.698C228.199 202.703 228.273 202.692 228.343 202.665C228.413 202.639 228.476 202.599 228.529 202.546C228.656 202.435 228.747 202.288 228.79 202.124Z" fill="white"/>
<path d="M230.172 200.397H232.6L232.549 201.02H231.024V201.484H232.431L232.381 202.082H230.914L230.863 202.664H232.423L232.364 203.321H229.894L230.172 200.397Z" fill="white"/>
<path d="M233.131 200.397H234.631C234.759 200.385 234.889 200.4 235.012 200.439C235.135 200.478 235.249 200.541 235.347 200.624C235.423 200.716 235.479 200.822 235.511 200.937C235.543 201.052 235.551 201.172 235.533 201.29C235.52 201.556 235.406 201.807 235.212 201.99C234.969 202.167 234.67 202.254 234.37 202.234H233.881L233.788 203.321H232.878L233.131 200.397ZM233.931 201.644H234.15C234.284 201.655 234.417 201.622 234.53 201.551C234.567 201.524 234.598 201.488 234.62 201.448C234.641 201.407 234.654 201.362 234.656 201.315C234.661 201.274 234.657 201.232 234.644 201.193C234.631 201.154 234.609 201.118 234.58 201.088C234.534 201.049 234.48 201.019 234.422 201.002C234.364 200.984 234.303 200.979 234.243 200.987H233.982L233.931 201.644Z" fill="white"/>
<path d="M235.878 200.397H238.634L238.575 201.121H237.657L237.463 203.321H236.561L236.755 201.121H235.828L235.878 200.397Z" fill="white"/>
<path opacity="0.1" d="M321.466 80.2025H268.251C266.739 80.1797 265.27 80.7102 264.122 81.6942C262.973 82.6783 262.223 84.048 262.014 85.5459L251.057 216.267H315.845L326.801 85.5459C327.054 82.5961 324.652 80.2025 321.466 80.2025Z" fill="#46436E" fill-opacity="0.92"/>
<path d="M319.814 83.4389H269.363C268.218 83.4617 267.12 83.9028 266.277 84.679C265.434 85.4553 264.904 86.513 264.787 87.653L262.258 117.91C262.204 118.448 262.263 118.991 262.434 119.504C262.604 120.017 262.881 120.488 263.246 120.886C263.612 121.284 264.057 121.6 264.554 121.814C265.051 122.027 265.587 122.133 266.127 122.124H316.578C317.724 122.103 318.823 121.663 319.666 120.886C320.51 120.11 321.039 119.051 321.155 117.91L323.683 87.653C323.736 87.1156 323.676 86.573 323.505 86.0607C323.334 85.5483 323.057 85.0779 322.692 84.68C322.327 84.2822 321.882 83.966 321.386 83.7521C320.89 83.5382 320.354 83.4315 319.814 83.4389Z" fill="white"/>
<path d="M316.182 126.701H265.731C264.585 126.724 263.487 127.165 262.644 127.941C261.801 128.717 261.271 129.775 261.154 130.915L258.626 161.172C258.571 161.71 258.631 162.253 258.801 162.766C258.971 163.279 259.248 163.75 259.614 164.148C259.979 164.546 260.425 164.862 260.921 165.076C261.418 165.289 261.954 165.395 262.494 165.386H312.945C314.092 165.365 315.191 164.925 316.034 164.148C316.877 163.371 317.407 162.313 317.522 161.172L320.05 130.915C320.103 130.378 320.041 129.836 319.87 129.324C319.698 128.812 319.421 128.342 319.056 127.945C318.691 127.547 318.247 127.231 317.752 127.017C317.256 126.802 316.721 126.695 316.182 126.701Z" fill="white"/>
<path d="M312.549 169.971H262.098C260.953 169.996 259.856 170.437 259.014 171.213C258.171 171.989 257.641 173.046 257.522 174.185L254.993 204.442C254.939 204.98 254.998 205.523 255.169 206.036C255.339 206.549 255.616 207.02 255.981 207.418C256.347 207.816 256.792 208.132 257.289 208.346C257.785 208.559 258.322 208.665 258.862 208.656H309.296C310.442 208.635 311.541 208.195 312.385 207.418C313.228 206.642 313.757 205.583 313.873 204.442L316.401 174.185C316.454 173.649 316.394 173.108 316.224 172.597C316.055 172.086 315.779 171.616 315.416 171.218C315.052 170.821 314.609 170.504 314.115 170.289C313.622 170.074 313.088 169.966 312.549 169.971Z" fill="white"/>
<path opacity="0.5" d="M278.778 100.43H269.861C269.613 100.435 269.367 100.387 269.139 100.29C268.911 100.192 268.707 100.048 268.54 99.865C268.372 99.6824 268.246 99.4662 268.168 99.2308C268.091 98.9955 268.064 98.7464 268.091 98.5L268.832 89.5746C268.888 89.0527 269.131 88.5688 269.518 88.2135C269.904 87.8583 270.406 87.656 270.931 87.6446H279.848C280.095 87.6409 280.341 87.6896 280.568 87.7875C280.795 87.8854 280.999 88.0303 281.166 88.2126C281.333 88.3949 281.46 88.6105 281.538 88.8452C281.616 89.08 281.643 89.3285 281.618 89.5746L280.868 98.5C280.816 99.0219 280.575 99.5067 280.19 99.8625C279.804 100.218 279.302 100.42 278.778 100.43Z" fill="#46436E" fill-opacity="0.92"/>
<path opacity="0.5" d="M316.881 107.383H268.251C268.134 107.384 268.019 107.36 267.912 107.313C267.805 107.267 267.709 107.199 267.63 107.113C267.551 107.028 267.49 106.927 267.452 106.816C267.414 106.706 267.399 106.589 267.408 106.473C267.433 106.225 267.548 105.994 267.731 105.825C267.914 105.656 268.153 105.559 268.403 105.554H317.05C317.167 105.554 317.284 105.578 317.391 105.625C317.499 105.672 317.595 105.741 317.674 105.827C317.754 105.914 317.814 106.016 317.852 106.127C317.889 106.238 317.903 106.356 317.893 106.473C317.868 106.723 317.75 106.955 317.563 107.124C317.376 107.292 317.133 107.385 316.881 107.383Z" fill="#46436E" fill-opacity="0.92"/>
<path opacity="0.2" d="M310.459 93.0807H288.082C287.896 93.0829 287.711 93.0456 287.54 92.9714C287.369 92.8972 287.216 92.7876 287.09 92.6499C286.964 92.5123 286.869 92.3496 286.811 92.1726C286.752 91.9955 286.732 91.8081 286.751 91.6227C286.792 91.2305 286.974 90.8668 287.265 90.5999C287.555 90.3329 287.933 90.1812 288.327 90.173H310.704C310.889 90.171 311.073 90.208 311.244 90.2818C311.414 90.3555 311.567 90.4643 311.693 90.601C311.818 90.7377 311.914 90.8994 311.973 91.0754C312.032 91.2514 312.053 91.4379 312.035 91.6227C311.996 92.0164 311.814 92.3821 311.524 92.6507C311.233 92.9194 310.855 93.0724 310.459 93.0807Z" fill="#263238"/>
<path opacity="0.2" d="M301.205 97.9016H287.72C287.534 97.9037 287.35 97.8666 287.18 97.7929C287.01 97.7191 286.857 97.6104 286.731 97.4737C286.605 97.3369 286.51 97.1753 286.451 96.9993C286.392 96.8233 286.371 96.6368 286.388 96.452C286.427 96.0583 286.609 95.6926 286.9 95.4239C287.19 95.1553 287.569 95.0023 287.964 94.9939H301.492C301.678 94.9918 301.863 95.029 302.034 95.1033C302.205 95.1775 302.358 95.287 302.484 95.4247C302.61 95.5624 302.705 95.7251 302.763 95.9021C302.822 96.0791 302.842 96.2665 302.823 96.452C302.781 96.8513 302.593 97.2208 302.294 97.4887C301.994 97.7567 301.606 97.9038 301.205 97.9016Z" fill="#263238"/>
<path opacity="0.5" d="M275.145 143.7H266.22C265.972 143.704 265.727 143.655 265.5 143.557C265.273 143.459 265.069 143.315 264.902 143.132C264.735 142.95 264.608 142.734 264.53 142.5C264.452 142.265 264.425 142.016 264.45 141.77L265.2 132.845C265.255 132.323 265.499 131.839 265.885 131.484C266.271 131.129 266.774 130.926 267.299 130.915H276.215C276.463 130.911 276.708 130.96 276.935 131.058C277.162 131.156 277.366 131.301 277.533 131.483C277.701 131.665 277.827 131.881 277.905 132.115C277.983 132.35 278.01 132.599 277.985 132.845L277.269 141.77C277.217 142.298 276.971 142.787 276.578 143.144C276.186 143.5 275.675 143.699 275.145 143.7Z" fill="#46436E" fill-opacity="0.92"/>
<path opacity="0.5" d="M313.266 150.654H264.627C264.509 150.654 264.393 150.63 264.286 150.583C264.178 150.536 264.082 150.467 264.002 150.381C263.923 150.294 263.863 150.192 263.825 150.081C263.787 149.97 263.773 149.852 263.784 149.735C263.81 149.49 263.925 149.262 264.106 149.095C264.287 148.927 264.523 148.831 264.77 148.825H313.417C313.534 148.824 313.649 148.848 313.756 148.895C313.863 148.941 313.959 149.009 314.039 149.095C314.118 149.18 314.178 149.281 314.217 149.392C314.255 149.502 314.27 149.619 314.26 149.735C314.236 149.983 314.121 150.214 313.937 150.383C313.754 150.552 313.515 150.649 313.266 150.654Z" fill="#46436E" fill-opacity="0.92"/>
<path opacity="0.2" d="M306.827 136.351H284.45C284.263 136.353 284.079 136.316 283.908 136.242C283.737 136.167 283.583 136.058 283.457 135.92C283.332 135.783 283.236 135.62 283.178 135.443C283.12 135.266 283.099 135.078 283.118 134.893C283.159 134.501 283.342 134.137 283.632 133.87C283.922 133.603 284.3 133.451 284.694 133.443H307.071C307.257 133.441 307.441 133.478 307.611 133.552C307.781 133.626 307.934 133.735 308.06 133.871C308.186 134.008 308.281 134.17 308.34 134.346C308.399 134.522 308.42 134.708 308.403 134.893C308.364 135.287 308.182 135.652 307.891 135.921C307.601 136.19 307.222 136.343 306.827 136.351Z" fill="#263238"/>
<path opacity="0.2" d="M297.572 141.172H284.012C283.826 141.174 283.642 141.137 283.471 141.063C283.301 140.989 283.148 140.881 283.023 140.744C282.897 140.607 282.802 140.446 282.743 140.27C282.683 140.094 282.662 139.907 282.68 139.722C282.719 139.329 282.901 138.963 283.191 138.694C283.482 138.426 283.86 138.273 284.256 138.264H297.783C297.97 138.262 298.154 138.299 298.325 138.374C298.496 138.448 298.65 138.557 298.776 138.695C298.901 138.833 298.997 138.995 299.055 139.172C299.113 139.349 299.134 139.537 299.115 139.722C299.075 140.109 298.897 140.468 298.614 140.734C298.33 141 297.961 141.156 297.572 141.172Z" fill="#263238"/>
<path d="M294.066 154.868H311.673C311.948 154.864 312.221 154.918 312.474 155.028C312.727 155.137 312.954 155.298 313.14 155.501C313.326 155.704 313.467 155.944 313.554 156.205C313.641 156.466 313.672 156.743 313.645 157.017L313.375 160.161C313.319 160.744 313.05 161.287 312.62 161.685C312.189 162.083 311.627 162.308 311.041 162.318H293.443C293.167 162.322 292.893 162.267 292.639 162.158C292.386 162.048 292.158 161.886 291.972 161.682C291.786 161.478 291.645 161.237 291.558 160.975C291.472 160.713 291.442 160.435 291.47 160.161L291.732 157.017C291.793 156.436 292.064 155.897 292.494 155.502C292.923 155.106 293.482 154.881 294.066 154.868Z" fill="#46436E" fill-opacity="0.92"/>
<path d="M295.44 159.571H294.412L294.226 160.051H293.283L294.631 157.126H295.626L296.468 160.051H295.524L295.44 159.571ZM295.305 158.938L295.078 157.885L294.665 158.938H295.305Z" fill="white"/>
<path d="M298.761 158.854L299.536 159.099C299.473 159.302 299.37 159.491 299.233 159.655C299.108 159.8 298.953 159.915 298.778 159.992C298.568 160.072 298.345 160.109 298.12 160.102C297.858 160.114 297.596 160.067 297.353 159.967C297.144 159.86 296.976 159.689 296.873 159.478C296.738 159.201 296.688 158.89 296.73 158.584C296.744 158.164 296.916 157.764 297.21 157.464C297.522 157.194 297.927 157.055 298.339 157.076C298.636 157.059 298.931 157.136 299.182 157.295C299.398 157.469 299.544 157.714 299.595 157.986L298.752 158.163C298.741 158.095 298.718 158.03 298.685 157.969C298.644 157.902 298.586 157.846 298.516 157.809C298.442 157.768 298.357 157.748 298.272 157.75C298.175 157.749 298.079 157.771 297.992 157.815C297.905 157.859 297.831 157.924 297.775 158.003C297.668 158.175 297.61 158.373 297.606 158.576C297.56 158.802 297.593 159.037 297.699 159.242C297.743 159.305 297.803 159.355 297.872 159.388C297.942 159.42 298.019 159.434 298.095 159.427C298.169 159.432 298.244 159.421 298.314 159.395C298.383 159.369 298.447 159.328 298.5 159.276C298.627 159.164 298.718 159.018 298.761 158.854Z" fill="white"/>
<path d="M301.947 158.854L302.722 159.099C302.656 159.301 302.553 159.489 302.419 159.655C302.294 159.8 302.139 159.915 301.964 159.992C301.754 160.072 301.53 160.109 301.306 160.102C301.044 160.114 300.782 160.068 300.539 159.967C300.33 159.86 300.162 159.689 300.059 159.478C299.924 159.201 299.874 158.89 299.916 158.585C299.93 158.164 300.101 157.764 300.396 157.464C300.707 157.192 301.113 157.053 301.525 157.076C301.822 157.059 302.117 157.136 302.368 157.295C302.584 157.469 302.73 157.714 302.781 157.986L301.938 158.163C301.926 158.095 301.904 158.03 301.871 157.969C301.827 157.901 301.766 157.846 301.694 157.809C301.622 157.768 301.54 157.748 301.458 157.75C301.361 157.748 301.264 157.77 301.177 157.814C301.091 157.858 301.016 157.923 300.961 158.003C300.85 158.174 300.792 158.373 300.792 158.576C300.745 158.801 300.775 159.036 300.876 159.242C300.923 159.304 300.984 159.354 301.055 159.386C301.126 159.419 301.203 159.433 301.281 159.427C301.358 159.437 301.436 159.429 301.51 159.406C301.584 159.383 301.653 159.344 301.711 159.292C301.824 159.168 301.905 159.017 301.947 158.854Z" fill="white"/>
<path d="M303.329 157.126H305.756L305.697 157.75H304.18L304.138 158.214H305.554L305.495 158.812H304.088L304.037 159.394H305.605L305.546 160.051H303.076L303.329 157.126Z" fill="white"/>
<path d="M306.279 157.126H307.787C307.917 157.114 308.047 157.129 308.17 157.17C308.294 157.21 308.407 157.276 308.504 157.362C308.583 157.452 308.641 157.559 308.673 157.674C308.705 157.789 308.711 157.91 308.689 158.028C308.683 158.16 308.651 158.288 308.595 158.407C308.538 158.526 308.459 158.632 308.361 158.719C308.12 158.904 307.819 158.991 307.518 158.964H307.02L306.928 160.051H306.018L306.279 157.126ZM307.122 158.374H307.341C307.471 158.384 307.601 158.352 307.712 158.281C307.746 158.255 307.775 158.222 307.797 158.184C307.818 158.146 307.832 158.105 307.838 158.062C307.843 158.019 307.84 157.975 307.829 157.933C307.817 157.891 307.797 157.852 307.771 157.818C307.724 157.778 307.671 157.749 307.613 157.732C307.555 157.714 307.494 157.709 307.433 157.716H307.172L307.122 158.374Z" fill="white"/>
<path d="M309.035 157.126H311.825L311.757 157.851H310.838L310.645 160.051H309.743L309.928 157.851H309.01L309.035 157.126Z" fill="white"/>
<path opacity="0.5" d="M271.513 186.971H262.587C262.339 186.973 262.094 186.923 261.867 186.824C261.64 186.725 261.436 186.58 261.269 186.397C261.102 186.214 260.975 185.998 260.898 185.763C260.82 185.528 260.792 185.279 260.817 185.032L261.567 176.115C261.623 175.593 261.866 175.109 262.252 174.754C262.639 174.399 263.141 174.197 263.666 174.185H272.583C272.83 174.181 273.076 174.23 273.303 174.328C273.53 174.426 273.734 174.571 273.901 174.753C274.068 174.935 274.195 175.151 274.273 175.386C274.351 175.62 274.378 175.869 274.353 176.115L273.603 185.032C273.55 185.554 273.308 186.039 272.923 186.396C272.539 186.753 272.037 186.957 271.513 186.971Z" fill="#46436E" fill-opacity="0.92"/>
<path opacity="0.25" d="M309.633 193.924H260.986C260.868 193.924 260.752 193.9 260.645 193.853C260.537 193.806 260.441 193.737 260.361 193.651C260.282 193.564 260.222 193.462 260.184 193.351C260.146 193.24 260.132 193.122 260.143 193.005C260.169 192.76 260.284 192.532 260.465 192.365C260.647 192.198 260.882 192.102 261.129 192.095H309.776C309.893 192.095 310.008 192.118 310.115 192.165C310.222 192.211 310.318 192.28 310.398 192.365C310.477 192.451 310.537 192.552 310.576 192.662C310.614 192.772 310.629 192.889 310.619 193.005C310.595 193.252 310.481 193.481 310.3 193.651C310.118 193.82 309.881 193.917 309.633 193.924Z" fill="#46436E" fill-opacity="0.92"/>
<path opacity="0.2" d="M303.194 179.613H280.817C280.631 179.616 280.447 179.58 280.276 179.507C280.105 179.433 279.951 179.325 279.825 179.188C279.699 179.051 279.604 178.888 279.545 178.712C279.487 178.535 279.467 178.348 279.486 178.163C279.525 177.772 279.706 177.408 279.995 177.141C280.283 176.874 280.66 176.722 281.053 176.714H303.439C303.625 176.71 303.809 176.746 303.98 176.82C304.151 176.893 304.305 177.002 304.431 177.139C304.556 177.276 304.652 177.438 304.71 177.614C304.769 177.791 304.789 177.978 304.77 178.163C304.731 178.556 304.549 178.921 304.258 179.188C303.968 179.455 303.589 179.606 303.194 179.613Z" fill="#263238"/>
<path opacity="0.2" d="M293.94 184.442H280.455C280.268 184.444 280.084 184.407 279.913 184.333C279.742 184.259 279.588 184.149 279.463 184.011C279.337 183.874 279.242 183.711 279.183 183.534C279.125 183.357 279.104 183.17 279.123 182.984C279.164 182.593 279.346 182.231 279.634 181.964C279.923 181.697 280.298 181.545 280.691 181.534H294.227C294.412 181.532 294.596 181.569 294.767 181.643C294.937 181.717 295.09 181.826 295.215 181.962C295.341 182.099 295.437 182.261 295.496 182.437C295.555 182.613 295.576 182.799 295.558 182.984C295.518 183.385 295.33 183.756 295.031 184.026C294.732 184.296 294.343 184.444 293.94 184.442Z" fill="#263238"/>
<path d="M79.1564 75.5333C79.2407 80.5902 79.5103 89.4735 76.847 92.5919C82.9665 94.5927 88.4555 98.161 92.7679 102.942C96.4173 96.9746 91.6638 93.7718 91.6638 93.7718C86.4046 92.0862 87.4497 88.7824 88.5369 85.1414L79.1564 75.5333Z" fill="#D7B8B7"/>
<path d="M74.5714 101.669L71.4698 107.636L68.4104 113.612C67.4159 115.609 66.4382 117.598 65.5364 119.562C65.0897 120.548 64.6936 121.526 64.3059 122.47C63.9699 123.27 63.6883 124.092 63.4631 124.931V123.591C63.5694 124.806 63.7924 126.008 64.1289 127.181C64.4987 128.481 64.9433 129.759 65.4606 131.008C65.9831 132.297 66.5815 133.587 67.222 134.876C67.8626 136.166 68.579 137.489 69.2195 138.694L69.3122 138.854C69.588 139.362 69.6778 139.95 69.5661 140.517C69.4543 141.083 69.148 141.593 68.7001 141.958C68.2522 142.323 67.6909 142.52 67.1132 142.515C66.5356 142.51 65.9778 142.303 65.5364 141.93C64.2712 140.872 63.0879 139.72 61.9966 138.483C60.9091 137.254 59.9013 135.956 58.9793 134.598C58.0166 133.186 57.171 131.698 56.4508 130.148C55.6648 128.489 55.0764 126.744 54.6978 124.948C54.6348 124.585 54.6348 124.215 54.6978 123.852V123.608C54.8844 122.202 55.1889 120.815 55.608 119.461C55.9789 118.239 56.4003 117.093 56.8301 115.955C57.6729 113.696 58.6084 111.53 59.5777 109.398C60.5469 107.265 61.5583 105.184 62.6034 103.085C63.6485 100.986 64.7273 98.972 65.9072 96.9156C66.5585 95.8114 67.6128 95.0031 68.8482 94.6609C70.0836 94.3188 71.4036 94.4695 72.53 95.0814C73.6565 95.6932 74.5015 96.7184 74.887 97.941C75.2725 99.1635 75.1684 100.488 74.5967 101.635L74.5714 101.669Z" fill="#D7B8B7"/>
<path d="M72.2284 140.464L71.0821 139.739L67.8289 137.649L65.5111 141.104C66.3539 144.476 69.7252 146.086 69.7252 146.086L71.0147 146.38C71.4614 146.495 71.935 146.435 72.339 146.213C72.743 145.99 73.0471 145.622 73.1892 145.184L73.56 144.189C73.7712 143.508 73.7555 142.776 73.5154 142.105C73.2753 141.433 72.8236 140.857 72.2284 140.464Z" fill="#D7B8B7"/>
<path d="M136.965 125.656L152.229 116.882C152.466 116.742 152.731 116.654 153.005 116.623C153.279 116.592 153.557 116.62 153.82 116.705C154.082 116.789 154.324 116.928 154.529 117.113C154.735 117.297 154.898 117.523 155.01 117.775L156.333 120.632C156.573 121.167 156.609 121.771 156.434 122.331C156.258 122.89 155.883 123.365 155.381 123.667L140.117 132.432C139.883 132.574 139.621 132.664 139.349 132.698C139.077 132.733 138.801 132.709 138.539 132.63C138.277 132.55 138.034 132.416 137.827 132.237C137.62 132.058 137.452 131.837 137.336 131.589L136.013 128.732C135.76 128.193 135.718 127.578 135.894 127.01C136.07 126.441 136.452 125.958 136.965 125.656Z" fill="#46436E" fill-opacity="0.92"/>
<path d="M140.505 129.044L139.612 129.558L139.687 130.072L138.887 130.536L138.6 127.316L139.443 126.827L141.634 128.943L140.792 129.415L140.505 129.044ZM140.067 128.563L139.342 127.771L139.51 128.884L140.067 128.563Z" fill="white"/>
<path d="M143.025 126.777L143.817 126.6C143.855 126.809 143.855 127.023 143.817 127.232C143.778 127.417 143.701 127.592 143.59 127.746C143.449 127.922 143.274 128.068 143.076 128.176C142.851 128.317 142.598 128.406 142.334 128.437C142.1 128.449 141.869 128.384 141.677 128.252C141.422 128.081 141.225 127.837 141.112 127.552C140.914 127.18 140.863 126.747 140.969 126.338C141.111 125.952 141.39 125.631 141.752 125.437C142.001 125.27 142.297 125.191 142.595 125.209C142.866 125.255 143.113 125.392 143.295 125.597L142.68 126.161C142.632 126.11 142.578 126.065 142.519 126.026C142.451 125.986 142.371 125.968 142.292 125.976C142.209 125.978 142.127 126.001 142.056 126.043C141.969 126.088 141.894 126.153 141.84 126.235C141.785 126.316 141.752 126.409 141.744 126.507C141.74 126.71 141.79 126.91 141.887 127.088C141.959 127.308 142.102 127.497 142.292 127.628C142.363 127.656 142.44 127.667 142.516 127.66C142.592 127.653 142.666 127.627 142.73 127.586C142.862 127.516 142.962 127.399 143.008 127.257C143.056 127.101 143.061 126.935 143.025 126.777Z" fill="white"/>
<path d="M145.789 125.184L146.582 125.007C146.627 125.215 146.627 125.431 146.582 125.639C146.55 125.829 146.472 126.009 146.354 126.161C146.213 126.338 146.038 126.484 145.84 126.591C145.618 126.732 145.368 126.821 145.107 126.852C144.873 126.865 144.642 126.8 144.449 126.667C144.19 126.496 143.99 126.248 143.876 125.959C143.679 125.589 143.63 125.158 143.741 124.754C143.874 124.362 144.156 124.038 144.525 123.852C144.773 123.685 145.07 123.605 145.368 123.624C145.639 123.668 145.887 123.805 146.068 124.012L145.444 124.577C145.402 124.52 145.347 124.473 145.284 124.442C145.216 124.4 145.136 124.382 145.056 124.391C144.973 124.394 144.892 124.417 144.82 124.459C144.735 124.505 144.663 124.571 144.61 124.652C144.557 124.733 144.525 124.826 144.517 124.922C144.523 125.137 144.575 125.349 144.669 125.542C144.764 125.735 144.899 125.906 145.065 126.043C145.136 126.071 145.213 126.082 145.289 126.074C145.365 126.067 145.438 126.042 145.503 126.001C145.635 125.932 145.735 125.814 145.781 125.672C145.825 125.513 145.828 125.345 145.789 125.184Z" fill="white"/>
<path d="M146.118 123.001L148.225 121.787L148.486 122.36L147.172 123.119L147.366 123.54L148.588 122.841L148.84 123.38L147.618 124.08L147.863 124.611L149.22 123.827L149.498 124.434L147.357 125.664L146.118 123.001Z" fill="white"/>
<path d="M148.68 121.526L149.987 120.776C150.093 120.703 150.212 120.652 150.338 120.626C150.464 120.6 150.594 120.599 150.72 120.624C150.834 120.661 150.938 120.724 151.024 120.807C151.11 120.89 151.176 120.992 151.217 121.104C151.278 121.222 151.314 121.35 151.325 121.482C151.335 121.614 151.318 121.746 151.276 121.871C151.162 122.149 150.949 122.374 150.678 122.504L150.248 122.748L150.712 123.742L149.919 124.198L148.68 121.526ZM150.004 122.209L150.197 122.099C150.316 122.045 150.414 121.953 150.476 121.838C150.494 121.795 150.504 121.749 150.504 121.703C150.504 121.656 150.494 121.611 150.476 121.568C150.439 121.492 150.376 121.432 150.299 121.399C150.238 121.39 150.177 121.393 150.117 121.407C150.058 121.422 150.002 121.448 149.953 121.484L149.734 121.619L150.004 122.209Z" fill="white"/>
<path d="M151.065 120.152L153.459 118.787L153.763 119.444L152.92 119.899L153.855 121.914L153.071 122.36L152.136 120.354L151.293 120.809L151.065 120.152Z" fill="white"/>
<path d="M132.06 127.038L129.532 128.184C129.036 128.404 128.647 128.811 128.45 129.316C128.252 129.821 128.263 130.383 128.478 130.881L129.38 132.997C129.493 133.25 129.664 133.474 129.879 133.649C130.094 133.825 130.348 133.948 130.619 134.008C132.776 134.455 135.886 133.216 138.12 132.095C138.485 131.916 138.809 131.662 139.068 131.349C139.328 131.035 139.518 130.671 139.625 130.278C139.733 129.886 139.756 129.475 139.692 129.074C139.629 128.672 139.481 128.288 139.258 127.948L138.28 126.448C137.865 125.825 137.224 125.388 136.492 125.23C135.76 125.073 134.995 125.207 134.361 125.605L132.06 127.038Z" fill="#D7B8B7"/>
<path d="M70.231 92.9965C65.7977 94.9602 61.7438 99.6379 58.4315 108.285C59.5019 111.85 70.4585 117.699 70.4585 117.699C70.4585 117.699 84.129 88.6981 70.231 92.9965Z" fill="#263238"/>
<path d="M106.826 104.071C106.784 107.291 112.102 114.733 105.983 119.048C105.452 125.546 104.727 131.943 103.337 142.605H70.6018C73.7118 130.805 71.0232 122.874 66.0337 102.149C65.7502 101.035 65.7108 99.872 65.918 98.7407C66.1252 97.6093 66.5743 96.5361 67.2344 95.5942C67.8946 94.6524 68.7503 93.8642 69.7431 93.2835C70.7359 92.7028 71.8424 92.3433 72.9869 92.2295C74.2849 92.0947 75.6671 91.9851 77.083 91.9177C82.0298 91.5675 86.9951 91.5675 91.9419 91.9177C93.5517 92.0694 95.212 92.2717 96.805 92.4908C99.5899 92.8907 102.137 94.2822 103.978 96.4097C105.819 98.5372 106.83 101.258 106.826 104.071Z" fill="#263238"/>
<path d="M92.0683 90.8979C84.5251 88.9762 68.3683 89.2122 65.4269 91.4794C62.4855 93.7466 68.6717 97.6235 69.0257 97.9354C66.8934 99.1238 69.0257 105.276 77.8837 106.97C86.7417 108.664 88.6971 97.6994 91.2592 95.3985C92.5656 94.227 93.282 92.4149 92.0683 90.8979Z" fill="#46436E" fill-opacity="0.92"/>
<path opacity="0.2" d="M70.2309 97.6741C74.6641 98.2809 84.1374 96.1739 87.3654 95.1878C83.2356 97.396 72.6751 101.416 70.2309 97.6741Z" fill="#D7B93F"/>
<path d="M105.815 100.169C106.27 102.419 106.717 104.779 107.222 107.072C107.728 109.364 108.217 111.682 108.748 113.949C109.279 116.216 109.869 118.466 110.509 120.624C110.829 121.703 111.192 122.756 111.546 123.742C111.864 124.637 112.247 125.508 112.692 126.347L111.006 124.821C111.006 124.821 111.065 124.821 111.091 124.872C111.116 124.922 111.327 124.965 111.445 125.024L112.515 125.344C113.299 125.563 114.201 125.748 115.044 125.925C116.813 126.262 118.659 126.591 120.513 126.878L126.135 127.763C128.006 128.083 129.911 128.361 131.782 128.698C132.365 128.804 132.89 129.115 133.263 129.575C133.636 130.034 133.833 130.613 133.816 131.204C133.8 131.796 133.572 132.363 133.174 132.801C132.776 133.24 132.235 133.521 131.647 133.595C129.683 133.839 127.753 133.966 125.798 134.109C123.843 134.252 121.896 134.286 119.898 134.303C117.901 134.32 115.954 134.303 113.923 134.143C112.903 134.067 111.875 133.983 110.779 133.823C110.223 133.747 109.658 133.646 109.034 133.502C108.706 133.41 108.419 133.351 108.023 133.216C107.826 133.158 107.632 133.091 107.441 133.013L106.75 132.702C106.151 132.421 105.639 131.984 105.267 131.437L105.098 131.176C104.294 129.946 103.587 128.656 102.983 127.316C102.41 126.077 101.946 124.855 101.491 123.65C100.598 121.222 99.856 118.82 99.1901 116.41C98.5243 113.999 97.9343 111.597 97.3949 109.187C96.8555 106.777 96.3836 104.383 95.9959 101.871C95.7913 100.593 96.096 99.2852 96.8446 98.2289C97.5933 97.1726 98.7261 96.4519 100 96.2213C101.274 95.9908 102.588 96.2689 103.659 96.9958C104.73 97.7228 105.474 98.8408 105.73 100.11L105.815 100.169Z" fill="#D7B8B7"/>
<path d="M99.5947 93.2324C103.632 95.2384 107.635 99.1322 109.295 108.049C108.25 111.581 93.8214 118.382 93.8214 118.382C93.8214 118.382 85.7893 88.0744 99.5947 93.2324Z" fill="#263238"/>
<path d="M99.0215 71.6395C98.9457 72.28 99.2238 72.8531 99.6452 72.9121C100.067 72.9711 100.488 72.516 100.555 71.8755C100.623 71.2349 100.353 70.6618 99.9318 70.5944C99.5104 70.5269 99.1058 70.9989 99.0215 71.6395Z" fill="#263238"/>
<path d="M99.7463 70.6028L101.348 70.4005C101.348 70.4005 100.404 71.4793 99.7463 70.6028Z" fill="#263238"/>
<path d="M99.207 72.339C99.6001 73.8959 100.201 75.3927 100.994 76.7891C100.63 76.9709 100.232 77.0711 99.8255 77.0828C99.4193 77.0944 99.0155 77.0172 98.6423 76.8565L99.207 72.339Z" fill="#D7B8B7"/>
<path d="M100.522 67.2231C100.617 67.2213 100.708 67.1819 100.775 67.1136C100.845 67.0412 100.884 66.9445 100.884 66.8439C100.884 66.7432 100.845 66.6465 100.775 66.5742C100.341 66.1342 99.8097 65.8038 99.2235 65.6103C98.6372 65.4169 98.0132 65.3659 97.4033 65.4616C97.3548 65.4725 97.3089 65.493 97.2684 65.5219C97.2279 65.5509 97.1937 65.5877 97.1677 65.6302C97.1418 65.6727 97.1246 65.7199 97.1173 65.7691C97.11 65.8184 97.1127 65.8686 97.1252 65.9168C97.1492 66.0159 97.2114 66.1016 97.2981 66.1552C97.3849 66.2089 97.4893 66.2261 97.5888 66.2033C98.069 66.1397 98.5574 66.1889 99.0153 66.3469C99.4732 66.5049 99.888 66.7674 100.227 67.1136C100.265 67.1523 100.311 67.1822 100.362 67.2012C100.413 67.2201 100.468 67.2276 100.522 67.2231Z" fill="#263238"/>
<path d="M77.9342 66.2202C77.4201 74.1679 77.0409 77.5139 80.4627 82.1747C85.6123 89.1701 95.3637 88.3272 98.1619 80.7503C100.69 73.9319 101.12 62.0819 93.8972 57.7583C92.3434 56.7977 90.5653 56.2604 88.7396 56.1999C86.9138 56.1394 85.104 56.5577 83.49 57.4132C81.876 58.2688 80.514 59.5319 79.5394 61.0769C78.5647 62.6219 78.0113 64.395 77.9342 66.2202Z" fill="#D7B8B7"/>
<path d="M93.5348 73.3925C98.9457 71.2855 98.2293 65.2509 95.4227 62.8573C100.909 65.1076 104.694 63.3546 100.547 57.379C96.4004 51.4034 73.7118 50.1476 76.847 59.4186C66.7332 56.1654 69.7 69.6251 70.2309 78.4494C62.9153 85.8241 81.1201 92.2211 92.633 88.4958C104.146 84.7706 93.5348 73.3925 93.5348 73.3925Z" fill="#263238"/>
<path d="M91.4615 72.28C92.0936 74.3028 92.3043 75.1709 93.5348 76.1401C95.3721 77.5982 97.5213 76.8144 97.4623 74.7495C97.4118 72.8869 96.3919 69.8948 94.327 69.229C92.2621 68.5632 90.8293 70.2573 91.4615 72.28Z" fill="#D7B8B7"/>
<path d="M103.328 142.605C103.328 142.605 104.483 184.855 106.025 212.66C107.66 238.163 109.759 297.826 109.759 297.826L103.32 298.163C103.32 298.163 89.051 247.965 89.6578 217.632C72.911 175.205 78.9287 143.877 78.9287 143.877L103.328 142.605Z" fill="#D7B8B7"/>
<path d="M109.279 295.163C109.422 295.06 109.595 295.004 109.772 295.004C109.949 295.004 110.121 295.06 110.265 295.163C113.358 297.468 117.111 298.718 120.969 298.728C125.25 298.914 124.188 301.257 118.061 302.032C110.863 302.934 109.312 304.409 106.986 304.999C104.66 305.589 102.772 303.81 102.856 298.922C102.861 298.754 102.915 298.591 103.013 298.455C103.111 298.318 103.247 298.214 103.404 298.155C105.471 297.387 107.442 296.383 109.279 295.163Z" fill="#263238"/>
<path d="M94.7738 142.605C94.7738 142.605 82.9744 192.609 76.1391 215.879C68.9499 240.321 63.2609 296.099 63.2946 297.953H57.7235C57.7235 297.953 50.5175 252.744 59.4092 215.862C60.252 156.022 70.5681 142.605 70.5681 142.605H94.7738Z" fill="#D7B8B7"/>
<path d="M63.4462 295.93C63.5919 295.868 63.7541 295.857 63.9069 295.898C64.0596 295.94 64.1942 296.031 64.289 296.158C65.7302 298.02 66.8175 300.094 71.0316 301.914C74.5461 303.423 72.6076 305.479 67.0872 304.721C60.6059 303.836 60.5216 304.889 58.3303 304.889C56.139 304.889 55.1192 302.715 56.7121 297.986C56.7639 297.83 56.857 297.69 56.9816 297.582C57.1062 297.473 57.2577 297.401 57.4201 297.371C59.48 297.138 61.5038 296.654 63.4462 295.93Z" fill="#263238"/>
<path d="M57.3864 204.434C56.729 210.612 55.5153 224.004 55.5153 224.004C55.5153 224.004 74.9001 227.982 108.883 225.985C108.706 221.905 108.672 216.006 108.672 216.006L57.3864 204.434Z" fill="#263238"/>
<path d="M103.328 142.436C108.039 169.665 110.192 197.276 109.759 224.906C91.3718 224.744 73.0365 222.925 54.976 219.47C54.976 219.47 55.9705 161.602 70.6018 142.445C79.0552 140.447 103.135 141.787 103.328 142.436Z" fill="#46436E" fill-opacity="0.92"/>
<path opacity="0.2" d="M69.228 165.47C79.0636 172.921 86.5226 174.328 86.5226 174.328C86.5226 174.328 78.4737 177.177 69.228 165.47Z" fill="#D7B93F"/>
<path d="M291.479 289.457H291.428C291.401 289.452 291.376 289.442 291.353 289.427C291.33 289.412 291.311 289.392 291.296 289.369C291.281 289.346 291.271 289.321 291.266 289.294C291.261 289.267 291.262 289.239 291.268 289.213C295.642 268.707 293.594 249.246 285.191 231.353C280.031 220.228 272.578 210.319 263.32 202.276C263.3 202.257 263.284 202.234 263.273 202.209C263.262 202.184 263.257 202.156 263.257 202.129C263.257 202.101 263.262 202.074 263.273 202.048C263.284 202.023 263.3 202 263.32 201.981C263.361 201.942 263.416 201.92 263.472 201.92C263.529 201.92 263.583 201.942 263.624 201.981C272.924 210.054 280.414 220 285.604 231.168C294.033 249.137 296.106 268.699 291.715 289.322C291.698 289.369 291.665 289.408 291.622 289.433C291.578 289.458 291.528 289.466 291.479 289.457Z" fill="#263238"/>
<path d="M299.359 251.05C297.957 254.08 295.815 256.709 293.131 258.694C292.675 255.374 293.142 251.992 294.48 248.92C295.818 245.847 297.975 243.202 300.716 241.273C301.093 244.594 300.626 247.957 299.359 251.05Z" fill="#263238"/>
<path d="M279.73 225.563C282.469 227.473 284.683 230.041 286.169 233.031C282.819 232.9 279.57 231.848 276.779 229.991C273.988 228.134 271.764 225.543 270.349 222.504C273.684 222.717 276.911 223.769 279.73 225.563Z" fill="#263238"/>
<path d="M276.426 204.678C276.877 207.986 276.489 211.354 275.297 214.472C273.126 211.922 271.697 208.824 271.166 205.517C270.635 202.21 271.023 198.82 272.288 195.719C274.398 198.311 275.821 201.392 276.426 204.678Z" fill="#46436E" fill-opacity="0.92"/>
<path d="M265.082 201.964C265.118 202.288 265.058 202.614 264.909 202.903C264.759 203.192 264.527 203.43 264.243 203.587C263.958 203.745 263.633 203.814 263.309 203.786C262.985 203.758 262.676 203.635 262.422 203.432C262.168 203.229 261.98 202.955 261.882 202.644C261.784 202.334 261.78 202.002 261.87 201.69C261.961 201.377 262.143 201.099 262.392 200.89C262.641 200.681 262.946 200.55 263.27 200.515C263.7 200.478 264.128 200.608 264.465 200.878C264.802 201.148 265.023 201.537 265.082 201.964Z" fill="#46436E" fill-opacity="0.92"/>
<path d="M296.426 285.268C296.385 285.269 296.345 285.257 296.31 285.234C296.276 285.212 296.249 285.18 296.232 285.142C289.144 268.286 287.72 251.244 292.018 234.522C294.638 224.147 299.42 214.442 306.051 206.044C306.071 206.023 306.094 206.007 306.12 205.996C306.147 205.985 306.175 205.979 306.203 205.979C306.231 205.979 306.259 205.985 306.285 205.996C306.311 206.007 306.335 206.023 306.355 206.044C306.393 206.083 306.415 206.136 306.415 206.191C306.415 206.246 306.393 206.299 306.355 206.339C299.775 214.684 295.033 224.326 292.44 234.632C288.175 251.252 289.583 268.193 296.654 284.973C296.665 284.999 296.67 285.027 296.67 285.055C296.67 285.084 296.665 285.111 296.654 285.137C296.643 285.163 296.626 285.187 296.606 285.206C296.586 285.226 296.562 285.241 296.536 285.252L296.426 285.268Z" fill="#263238"/>
<path d="M286.784 267.072C288.118 268.468 289.782 269.506 291.622 270.089C291.253 268.186 290.366 266.421 289.059 264.99C287.752 263.558 286.075 262.514 284.214 261.973C284.629 263.861 285.513 265.615 286.784 267.072Z" fill="#46436E" fill-opacity="0.92"/>
<path d="M292.912 235.416C291.73 237.234 291.025 239.321 290.864 241.484C292.845 240.586 294.542 239.161 295.768 237.364C296.995 235.567 297.703 233.467 297.817 231.294C295.862 232.235 294.175 233.652 292.912 235.416Z" fill="#46436E" fill-opacity="0.92"/>
<path d="M292.575 222.79C292.73 224.563 293.33 226.267 294.319 227.746C295.15 226.163 295.528 224.381 295.412 222.597C295.296 220.813 294.69 219.095 293.662 217.632C292.868 219.232 292.494 221.007 292.575 222.79Z" fill="#46436E" fill-opacity="0.92"/>
<path d="M303.143 212.087C301.657 213.066 300.442 214.405 299.612 215.98C301.396 215.955 303.139 215.44 304.65 214.49C306.16 213.54 307.38 212.192 308.175 210.595C306.399 210.658 304.667 211.171 303.143 212.087Z" fill="#46436E" fill-opacity="0.92"/>
<path d="M304.795 206.288C304.816 206.569 304.92 206.838 305.094 207.06C305.268 207.282 305.504 207.448 305.772 207.536C306.04 207.624 306.328 207.63 306.6 207.554C306.871 207.478 307.114 207.323 307.298 207.109C307.481 206.894 307.597 206.631 307.63 206.35C307.664 206.07 307.613 205.787 307.485 205.535C307.357 205.284 307.157 205.076 306.911 204.939C306.664 204.801 306.383 204.74 306.102 204.762C305.727 204.793 305.379 204.97 305.134 205.256C304.889 205.542 304.767 205.913 304.795 206.288Z" fill="#46436E" fill-opacity="0.92"/>
<path d="M309.953 298.989L309.161 298.694C309.693 297.216 309.956 295.655 309.937 294.084H310.779C310.799 295.755 310.519 297.417 309.953 298.989Z" fill="#46436E" fill-opacity="0.92"/>
<path d="M309.296 289.676C308.409 286.658 306.65 283.969 304.239 281.948L304.779 281.299C307.307 283.431 309.149 286.264 310.071 289.44L309.296 289.676Z" fill="#46436E" fill-opacity="0.92"/>
<path d="M300.025 281.661L301.711 274.657H286.355L288.04 281.661C285.697 282.784 283.719 284.546 282.334 286.744C280.949 288.942 280.213 291.486 280.21 294.084C280.21 301.67 286.388 304.459 294.007 304.459C301.626 304.459 307.804 301.703 307.804 294.084C307.807 291.492 307.078 288.951 305.702 286.753C304.326 284.556 302.359 282.791 300.025 281.661Z" fill="#46436E" fill-opacity="0.92"/>
</svg>
