<svg width="27" height="20" viewBox="0 0 27 20" fill="none" xmlns="http://www.w3.org/2000/svg">
<path d="M8.15037 2.41834L25.5366 2.41929M8.15037 10.3546L25.5366 10.3556M8.15037 18.2908L25.5366 18.2919M2.13208 2.41745H2.14545M2.13208 10.3537H2.14545M2.13208 18.2899H2.14545M2.80078 2.41745C2.80078 2.78271 2.50139 3.07881 2.13208 3.07881C1.76277 3.07881 1.46338 2.78271 1.46338 2.41745C1.46338 2.0522 1.76277 1.7561 2.13208 1.7561C2.50139 1.7561 2.80078 2.0522 2.80078 2.41745ZM2.80078 10.3537C2.80078 10.7189 2.50139 11.015 2.13208 11.015C1.76277 11.015 1.46338 10.7189 1.46338 10.3537C1.46338 9.98847 1.76277 9.69231 2.13208 9.69231C2.50139 9.69231 2.80078 9.98847 2.80078 10.3537ZM2.80078 18.2899C2.80078 18.6551 2.50139 18.9512 2.13208 18.9512C1.76277 18.9512 1.46338 18.6551 1.46338 18.2899C1.46338 17.9247 1.76277 17.6285 2.13208 17.6285C2.50139 17.6285 2.80078 17.9247 2.80078 18.2899Z" stroke="white" stroke-width="2" stroke-linecap="round" stroke-linejoin="round"/>
</svg>
